<svg xmlns="http://www.w3.org/2000/svg" xmlns:xlink="http://www.w3.org/1999/xlink" width="128" zoomAndPan="magnify" viewBox="0 0 96 95.999999" height="128" preserveAspectRatio="xMidYMid meet" version="1.0"><defs><clipPath id="bb57a1855c"><path d="M 0 30.71875 L 96 30.71875 L 96 95.96875 L 0 95.96875 Z M 0 30.71875 " clip-rule="nonzero"/></clipPath><clipPath id="47a741a9c0"><path d="M 0 30.71875 L 96 30.71875 L 96 39 L 0 39 Z M 0 30.71875 " clip-rule="nonzero"/></clipPath><clipPath id="2fd90d3526"><path d="M 0 30.71875 L 96 30.71875 L 96 42 L 0 42 Z M 0 30.71875 " clip-rule="nonzero"/></clipPath><clipPath id="48a710af8f"><path d="M 0 30.71875 L 11 30.71875 L 11 40 L 0 40 Z M 0 30.71875 " clip-rule="nonzero"/></clipPath><clipPath id="146236ca18"><path d="M 6 30.71875 L 16 30.71875 L 16 40 L 6 40 Z M 6 30.71875 " clip-rule="nonzero"/></clipPath><clipPath id="ad780cf8cd"><path d="M 12 30.71875 L 22 30.71875 L 22 40 L 12 40 Z M 12 30.71875 " clip-rule="nonzero"/></clipPath><clipPath id="c816e4b284"><path d="M 20 42 L 77 42 L 77 92.179688 L 20 92.179688 Z M 20 42 " clip-rule="nonzero"/></clipPath><clipPath id="795a52dd97"><path d="M 43 89 L 45 89 L 45 92.179688 L 43 92.179688 Z M 43 89 " clip-rule="nonzero"/></clipPath><clipPath id="e1714d4dd9"><path d="M 21 87 L 32 87 L 32 92.179688 L 21 92.179688 Z M 21 87 " clip-rule="nonzero"/></clipPath><clipPath id="90a4cb3bf9"><path d="M 36 82 L 47 82 L 47 92.179688 L 36 92.179688 Z M 36 82 " clip-rule="nonzero"/></clipPath><clipPath id="d9825d64e7"><path d="M 50 77 L 61 77 L 61 92.179688 L 50 92.179688 Z M 50 77 " clip-rule="nonzero"/></clipPath></defs><g clip-path="url(#bb57a1855c)"><path stroke-linecap="butt" transform="matrix(0.107865, 0, 0, 0.107826, -0.0539321, 30.67359)" fill-opacity="1" fill="#516f90" fill-rule="evenodd" stroke-linejoin="miter" d="M 48.013018 2.990949 L 842.987004 2.990949 C 845.956568 2.990949 848.889918 3.208312 851.787053 3.570584 C 854.684189 3.969084 857.508896 4.512492 860.22496 5.273263 C 862.941025 6.034034 865.548447 6.975942 868.011012 8.062758 C 870.473577 9.149574 872.718857 10.381299 874.81928 11.79416 C 876.919704 13.170794 878.766628 14.692336 880.43248 16.32256 C 882.062119 17.952785 883.438259 19.69169 884.560899 21.503051 C 885.719753 23.350638 886.552679 25.198225 887.132106 27.154494 C 887.711533 29.074536 888.001247 31.030805 888.001247 32.987074 L 888.001247 572.989785 C 888.001247 574.982281 887.711533 576.93855 887.132106 578.858592 C 886.552679 580.778634 885.719753 582.662448 884.560899 584.473809 C 883.438259 586.285169 882.062119 588.024075 880.43248 589.654299 C 878.766628 591.32075 876.919704 592.806066 874.81928 594.218927 C 872.718857 595.59556 870.473577 596.863513 868.011012 597.950329 C 865.548447 599.037145 862.941025 599.979052 860.22496 600.703596 C 857.508896 601.464368 854.684189 602.044003 851.787053 602.406275 C 848.889918 602.804774 845.956568 602.98591 842.987004 602.98591 L 48.013018 602.98591 C 45.043454 602.98591 42.110104 602.804774 39.212969 602.406275 C 36.315833 602.044003 33.491126 601.464368 30.775062 600.703596 C 28.058997 599.979052 25.451575 599.037145 22.98901 597.950329 C 20.526445 596.863513 18.281165 595.59556 16.180741 594.218927 C 14.080318 592.806066 12.233394 591.32075 10.567541 589.654299 C 8.937903 588.024075 7.561763 586.285169 6.439123 584.473809 C 5.280269 582.662448 4.447343 580.778634 3.867915 578.858592 C 3.288488 576.93855 2.998775 574.982281 2.998775 572.989785 L 2.998775 32.987074 C 2.998775 31.030805 3.288488 29.074536 3.867915 27.154494 C 4.447343 25.198225 5.280269 23.350638 6.439123 21.503051 C 7.561763 19.69169 8.937903 17.952785 10.567541 16.32256 C 12.233394 14.692336 14.080318 13.170794 16.180741 11.79416 C 18.281165 10.381299 20.526445 9.149574 22.98901 8.062758 C 25.451575 6.975942 28.058997 6.034034 30.775062 5.273263 C 33.491126 4.512492 36.315833 3.969084 39.212969 3.570584 C 42.110104 3.208312 45.043454 2.990949 48.013018 2.990949 Z M 48.013018 2.990949 " stroke="#333333" stroke-width="5.002" stroke-opacity="1" stroke-miterlimit="4"/></g><g clip-path="url(#47a741a9c0)"><path fill="#ffffff" d="M 3.503906 30.996094 L 92.386719 30.996094 C 94.21875 30.996094 95.621094 32.398438 95.621094 34.230469 L 95.621094 38.652344 L 0.269531 38.652344 L 0.269531 34.230469 C 0.269531 32.398438 1.671875 30.996094 3.503906 30.996094 Z M 3.503906 30.996094 " fill-opacity="1" fill-rule="evenodd"/></g><g clip-path="url(#2fd90d3526)"><path stroke-linecap="butt" transform="matrix(0.107865, 0, 0, 0.107826, -0.0539321, 30.67359)" fill="none" stroke-linejoin="miter" d="M 32.984127 2.990949 L 857.001897 2.990949 C 873.986354 2.990949 886.98725 15.996515 886.98725 32.987074 L 886.98725 73.99627 L 2.998775 73.99627 L 2.998775 32.987074 C 2.998775 15.996515 15.99967 2.990949 32.984127 2.990949 Z M 32.984127 2.990949 " stroke="#333333" stroke-width="5.002" stroke-opacity="1" stroke-miterlimit="4"/></g><path fill="#f2545b" d="M 7.171875 34.769531 C 7.171875 35 7.128906 35.21875 7.042969 35.429688 C 6.953125 35.640625 6.828125 35.828125 6.667969 35.992188 C 6.503906 36.152344 6.320312 36.277344 6.109375 36.363281 C 5.894531 36.453125 5.675781 36.496094 5.445312 36.496094 C 5.21875 36.496094 5 36.453125 4.785156 36.363281 C 4.574219 36.277344 4.386719 36.152344 4.226562 35.992188 C 4.066406 35.828125 3.941406 35.640625 3.851562 35.429688 C 3.765625 35.21875 3.722656 35 3.722656 34.769531 C 3.722656 34.542969 3.765625 34.320312 3.851562 34.109375 C 3.941406 33.898438 4.066406 33.710938 4.226562 33.550781 C 4.386719 33.390625 4.574219 33.265625 4.785156 33.175781 C 5 33.089844 5.21875 33.046875 5.445312 33.046875 C 5.675781 33.046875 5.894531 33.089844 6.109375 33.175781 C 6.320312 33.265625 6.503906 33.390625 6.667969 33.550781 C 6.828125 33.710938 6.953125 33.898438 7.042969 34.109375 C 7.128906 34.320312 7.171875 34.542969 7.171875 34.769531 Z M 7.171875 34.769531 " fill-opacity="1" fill-rule="nonzero"/><g clip-path="url(#48a710af8f)"><path stroke-linecap="butt" transform="matrix(0.107865, 0, 0, 0.107826, -0.0539321, 30.67359)" fill="none" stroke-linejoin="miter" d="M 66.989256 37.986429 C 66.989256 40.123834 66.590899 42.152557 65.794187 44.108826 C 64.961261 46.065095 63.802406 47.804001 62.317624 49.325544 C 60.796628 50.810859 59.094561 51.97013 57.138995 52.767128 C 55.147214 53.600354 53.119219 53.998853 50.982582 53.998853 C 48.882159 53.998853 46.854164 53.600354 44.862383 52.767128 C 42.906817 51.97013 41.168535 50.810859 39.683753 49.325544 C 38.198971 47.804001 37.040117 46.065095 36.207191 44.108826 C 35.410478 42.152557 35.012122 40.123834 35.012122 37.986429 C 35.012122 35.885251 35.410478 33.8203 36.207191 31.864031 C 37.040117 29.907762 38.198971 28.168856 39.683753 26.683541 C 41.168535 25.198225 42.906817 24.038955 44.862383 23.205729 C 46.854164 22.408731 48.882159 22.010231 50.982582 22.010231 C 53.119219 22.010231 55.147214 22.408731 57.138995 23.205729 C 59.094561 24.038955 60.796628 25.198225 62.317624 26.683541 C 63.802406 28.168856 64.961261 29.907762 65.794187 31.864031 C 66.590899 33.8203 66.989256 35.885251 66.989256 37.986429 Z M 66.989256 37.986429 " stroke="#333333" stroke-width="5.002" stroke-opacity="1" stroke-miterlimit="4"/></g><path fill="#ffff00" d="M 12.890625 34.769531 C 12.890625 35 12.847656 35.21875 12.757812 35.429688 C 12.671875 35.640625 12.546875 35.828125 12.382812 35.992188 C 12.222656 36.152344 12.035156 36.277344 11.824219 36.363281 C 11.613281 36.453125 11.394531 36.496094 11.164062 36.496094 C 10.933594 36.496094 10.714844 36.453125 10.503906 36.363281 C 10.292969 36.277344 10.105469 36.152344 9.945312 35.992188 C 9.78125 35.828125 9.65625 35.640625 9.570312 35.429688 C 9.480469 35.21875 9.4375 35 9.4375 34.769531 C 9.4375 34.542969 9.480469 34.320312 9.570312 34.109375 C 9.65625 33.898438 9.78125 33.710938 9.945312 33.550781 C 10.105469 33.390625 10.292969 33.265625 10.503906 33.175781 C 10.714844 33.089844 10.933594 33.046875 11.164062 33.046875 C 11.394531 33.046875 11.613281 33.089844 11.824219 33.175781 C 12.035156 33.265625 12.222656 33.390625 12.382812 33.550781 C 12.546875 33.710938 12.671875 33.898438 12.757812 34.109375 C 12.847656 34.320312 12.890625 34.542969 12.890625 34.769531 Z M 12.890625 34.769531 " fill-opacity="1" fill-rule="nonzero"/><g clip-path="url(#146236ca18)"><path stroke-linecap="butt" transform="matrix(0.107865, 0, 0, 0.107826, -0.0539321, 30.67359)" fill="none" stroke-linejoin="miter" d="M 120.006835 37.986429 C 120.006835 40.123834 119.608479 42.152557 118.775553 44.108826 C 117.978841 46.065095 116.819986 47.804001 115.29899 49.325544 C 113.814208 50.810859 112.075927 51.97013 110.120361 52.767128 C 108.164794 53.600354 106.136799 53.998853 104.000162 53.998853 C 101.863524 53.998853 99.835529 53.600354 97.879963 52.767128 C 95.924396 51.97013 94.186115 50.810859 92.701333 49.325544 C 91.180337 47.804001 90.021483 46.065095 89.224771 44.108826 C 88.391844 42.152557 87.993488 40.123834 87.993488 37.986429 C 87.993488 35.885251 88.391844 33.8203 89.224771 31.864031 C 90.021483 29.907762 91.180337 28.168856 92.701333 26.683541 C 94.186115 25.198225 95.924396 24.038955 97.879963 23.205729 C 99.835529 22.408731 101.863524 22.010231 104.000162 22.010231 C 106.136799 22.010231 108.164794 22.408731 110.120361 23.205729 C 112.075927 24.038955 113.814208 25.198225 115.29899 26.683541 C 116.819986 28.168856 117.978841 29.907762 118.775553 31.864031 C 119.608479 33.8203 120.006835 35.885251 120.006835 37.986429 Z M 120.006835 37.986429 " stroke="#333333" stroke-width="5.002" stroke-opacity="1" stroke-miterlimit="4"/></g><path fill="#00ff00" d="M 18.714844 34.769531 C 18.714844 35 18.671875 35.21875 18.582031 35.429688 C 18.496094 35.640625 18.371094 35.828125 18.210938 35.992188 C 18.046875 36.152344 17.859375 36.277344 17.648438 36.363281 C 17.4375 36.453125 17.21875 36.496094 16.988281 36.496094 C 16.761719 36.496094 16.539062 36.453125 16.328125 36.363281 C 16.117188 36.277344 15.929688 36.152344 15.769531 35.992188 C 15.605469 35.828125 15.480469 35.640625 15.394531 35.429688 C 15.308594 35.21875 15.261719 35 15.261719 34.769531 C 15.261719 34.542969 15.308594 34.320312 15.394531 34.109375 C 15.480469 33.898438 15.605469 33.710938 15.769531 33.550781 C 15.929688 33.390625 16.117188 33.265625 16.328125 33.175781 C 16.539062 33.089844 16.761719 33.046875 16.988281 33.046875 C 17.21875 33.046875 17.4375 33.089844 17.648438 33.175781 C 17.859375 33.265625 18.046875 33.390625 18.210938 33.550781 C 18.371094 33.710938 18.496094 33.898438 18.582031 34.109375 C 18.671875 34.320312 18.714844 34.542969 18.714844 34.769531 Z M 18.714844 34.769531 " fill-opacity="1" fill-rule="nonzero"/><g clip-path="url(#ad780cf8cd)"><path stroke-linecap="butt" transform="matrix(0.107865, 0, 0, 0.107826, -0.0539321, 30.67359)" fill="none" stroke-linejoin="miter" d="M 174.002199 37.986429 C 174.002199 40.123834 173.603843 42.152557 172.770916 44.108826 C 171.974204 46.065095 170.81535 47.804001 169.330568 49.325544 C 167.809572 50.810859 166.07129 51.97013 164.115724 52.767128 C 162.160157 53.600354 160.132162 53.998853 157.995525 53.998853 C 155.895102 53.998853 153.830893 53.600354 151.875326 52.767128 C 149.91976 51.97013 148.181478 50.810859 146.696696 49.325544 C 145.1757 47.804001 144.016846 46.065095 143.220134 44.108826 C 142.423422 42.152557 141.988851 40.123834 141.988851 37.986429 C 141.988851 35.885251 142.423422 33.8203 143.220134 31.864031 C 144.016846 29.907762 145.1757 28.168856 146.696696 26.683541 C 148.181478 25.198225 149.91976 24.038955 151.875326 23.205729 C 153.830893 22.408731 155.895102 22.010231 157.995525 22.010231 C 160.132162 22.010231 162.160157 22.408731 164.115724 23.205729 C 166.07129 24.038955 167.809572 25.198225 169.330568 26.683541 C 170.81535 28.168856 171.974204 29.907762 172.770916 31.864031 C 173.603843 33.8203 174.002199 35.885251 174.002199 37.986429 Z M 174.002199 37.986429 " stroke="#333333" stroke-width="5.002" stroke-opacity="1" stroke-miterlimit="4"/></g><g clip-path="url(#c816e4b284)"><path fill="#f2545b" d="M 34.300781 92.1875 L 63.277344 92.1875 C 66.757812 92.1875 69.914062 90.136719 71.359375 86.933594 L 75.9375 76.777344 C 77.554688 73.1875 76.664062 68.953125 73.746094 66.339844 L 69.0625 62.140625 C 67.160156 60.4375 66.070312 57.992188 66.070312 55.421875 L 66.070312 50.242188 C 66.070312 43.445312 58.273438 39.6875 53.046875 43.964844 C 51.347656 45.359375 49.15625 45.984375 46.988281 45.703125 L 39.3125 44.695312 C 33.308594 43.90625 28.304688 49.285156 29.449219 55.292969 L 30.28125 59.671875 C 31.054688 63.722656 28.96875 67.773438 25.25 69.464844 C 19.714844 71.980469 18.304688 79.28125 22.5 83.71875 L 27.878906 89.414062 C 29.554688 91.1875 31.875 92.1875 34.300781 92.1875 Z M 34.300781 92.1875 " fill-opacity="1" fill-rule="nonzero"/></g><path fill="#000000" d="M 53.554688 91.933594 L 52.75 85.339844 L 35.648438 84.617188 L 35.203125 91.933594 Z M 53.554688 91.933594 " fill-opacity="1" fill-rule="nonzero"/><path fill="#ffffff" d="M 41.753906 58.898438 L 41.394531 60.796875 L 41.753906 62.785156 C 42.679688 62.902344 44.566406 63.144531 44.707031 63.144531 C 44.851562 63.144531 45.902344 62.242188 46.410156 61.789062 L 45.871094 58.898438 C 47.375 58.394531 47.871094 56.160156 47.929688 55.105469 C 48.289062 50.769531 45.425781 50.226562 44.886719 50.226562 C 44.351562 50.226562 40.949219 50.226562 40.5 53.839844 C 40.140625 56.730469 41.1875 58.417969 41.753906 58.898438 Z M 41.753906 58.898438 " fill-opacity="1" fill-rule="nonzero"/><path fill="#000000" d="M 42.738281 50.847656 C 41.8125 51.273438 40.898438 52.128906 40.683594 53.863281 C 40.328125 56.703125 41.359375 58.324219 41.871094 58.757812 L 41.953125 58.828125 L 41.582031 60.796875 L 41.910156 62.617188 C 42.367188 62.675781 42.996094 62.757812 43.546875 62.824219 C 43.847656 62.863281 44.125 62.898438 44.335938 62.921875 C 44.441406 62.933594 44.53125 62.945312 44.597656 62.949219 C 44.628906 62.953125 44.65625 62.957031 44.675781 62.957031 C 44.679688 62.957031 44.683594 62.957031 44.683594 62.957031 C 44.691406 62.957031 44.699219 62.953125 44.707031 62.945312 C 44.746094 62.925781 44.792969 62.890625 44.855469 62.847656 C 44.976562 62.757812 45.136719 62.632812 45.304688 62.492188 C 45.613281 62.242188 45.960938 61.941406 46.210938 61.71875 L 45.664062 58.773438 L 45.8125 58.722656 C 46.492188 58.496094 46.964844 57.871094 47.273438 57.136719 C 47.582031 56.40625 47.71875 55.605469 47.746094 55.09375 L 47.75 55.089844 C 47.921875 52.96875 47.308594 51.808594 46.621094 51.175781 C 45.921875 50.535156 45.121094 50.410156 44.886719 50.410156 C 44.621094 50.410156 43.671875 50.414062 42.738281 50.847656 Z M 44.667969 62.964844 C 44.667969 62.964844 44.671875 62.964844 44.671875 62.964844 C 44.671875 62.964844 44.667969 62.964844 44.667969 62.964844 Z M 44.886719 50.042969 C 45.191406 50.042969 46.089844 50.1875 46.867188 50.902344 C 47.65625 51.625 48.296875 52.90625 48.113281 55.117188 C 48.082031 55.660156 47.941406 56.503906 47.609375 57.28125 C 47.304688 58.003906 46.820312 58.703125 46.078125 59.015625 L 46.609375 61.859375 L 46.53125 61.929688 C 46.273438 62.15625 45.882812 62.496094 45.539062 62.78125 C 45.363281 62.921875 45.199219 63.050781 45.070312 63.148438 C 45.003906 63.195312 44.945312 63.234375 44.894531 63.265625 C 44.867188 63.28125 44.84375 63.292969 44.816406 63.304688 C 44.796875 63.3125 44.753906 63.328125 44.707031 63.328125 C 44.660156 63.328125 44.5 63.3125 44.296875 63.289062 C 44.082031 63.265625 43.804688 63.230469 43.5 63.191406 C 42.894531 63.117188 42.191406 63.027344 41.730469 62.964844 L 41.597656 62.949219 L 41.210938 60.796875 L 41.554688 58.96875 C 40.925781 58.359375 39.96875 56.632812 40.320312 53.816406 C 40.550781 51.941406 41.558594 50.984375 42.582031 50.511719 C 43.59375 50.042969 44.609375 50.042969 44.886719 50.042969 Z M 44.886719 50.042969 " fill-opacity="1" fill-rule="evenodd"/><path fill="#ffffff" d="M 63.019531 63.960938 C 62.644531 64.519531 61.160156 66.054688 60.988281 66.328125 L 61.660156 67.90625 L 63.492188 68.335938 C 63.90625 67.742188 65.085938 67.128906 65.367188 66.207031 C 65.589844 65.46875 64.730469 64.46875 64.3125 64.304688 L 65.59375 62.53125 C 65.765625 62.292969 65.71875 61.960938 65.488281 61.785156 C 65.261719 61.613281 64.9375 61.648438 64.757812 61.867188 Z M 63.019531 63.960938 " fill-opacity="1" fill-rule="nonzero"/><path fill="#000000" d="M 65.597656 61.636719 C 65.292969 61.40625 64.859375 61.453125 64.617188 61.75 L 62.875 63.851562 L 62.867188 63.859375 C 62.691406 64.125 62.238281 64.632812 61.792969 65.125 C 61.738281 65.1875 61.683594 65.246094 61.628906 65.308594 C 61.46875 65.484375 61.316406 65.652344 61.1875 65.796875 C 61.023438 65.984375 60.886719 66.144531 60.832031 66.230469 L 60.78125 66.3125 L 61.527344 68.0625 L 63.570312 68.542969 L 63.640625 68.441406 C 63.730469 68.3125 63.871094 68.175781 64.042969 68.019531 C 64.125 67.945312 64.210938 67.871094 64.300781 67.792969 L 64.3125 67.785156 C 64.40625 67.703125 64.503906 67.621094 64.601562 67.535156 C 64.984375 67.191406 65.382812 66.777344 65.542969 66.261719 C 65.679688 65.8125 65.480469 65.316406 65.234375 64.9375 C 65.105469 64.746094 64.957031 64.570312 64.808594 64.433594 C 64.734375 64.363281 64.65625 64.300781 64.582031 64.246094 L 65.742188 62.640625 C 65.972656 62.320312 65.910156 61.875 65.597656 61.636719 Z M 64.898438 61.988281 C 65.015625 61.84375 65.226562 61.820312 65.375 61.933594 C 65.527344 62.050781 65.558594 62.265625 65.449219 62.421875 L 64.023438 64.390625 L 64.246094 64.480469 C 64.320312 64.507812 64.429688 64.582031 64.558594 64.703125 C 64.6875 64.820312 64.816406 64.972656 64.929688 65.144531 C 65.160156 65.492188 65.277344 65.867188 65.191406 66.152344 C 65.066406 66.5625 64.738281 66.914062 64.355469 67.257812 C 64.261719 67.339844 64.167969 67.421875 64.074219 67.503906 L 64.0625 67.511719 C 63.972656 67.589844 63.882812 67.667969 63.796875 67.746094 C 63.660156 67.867188 63.527344 67.996094 63.417969 68.128906 L 61.789062 67.746094 L 61.199219 66.351562 C 61.253906 66.28125 61.34375 66.179688 61.460938 66.042969 C 61.589844 65.902344 61.738281 65.734375 61.898438 65.558594 C 61.953125 65.496094 62.007812 65.4375 62.0625 65.375 C 62.496094 64.898438 62.964844 64.367188 63.164062 64.074219 Z M 64.898438 61.988281 " fill-opacity="1" fill-rule="evenodd"/><path fill="#000000" d="M 42.738281 57.09375 C 42.378906 59.1875 41.875 59.410156 41.664062 59.261719 C 39.15625 57.632812 39.21875 52.441406 40.769531 50.679688 C 42.203125 49.054688 43.277344 49.683594 46.230469 48.960938 C 49.183594 48.238281 50.167969 49.503906 49.632812 51.128906 C 48.859375 53.472656 46.410156 52.214844 45.78125 52.484375 C 45.15625 52.757812 44.351562 53.480469 43.992188 54.925781 C 43.632812 56.371094 43.453125 56.097656 43.1875 55.285156 C 42.917969 54.472656 42.203125 53.296875 41.664062 54.742188 C 41.234375 55.898438 42.203125 56.792969 42.738281 57.09375 Z M 42.738281 57.09375 " fill-opacity="1" fill-rule="nonzero"/><path fill="#ffffff" d="M 45.585938 87.597656 C 42.511719 87.65625 36.097656 87.671875 35.023438 87.238281 C 34.632812 87.078125 34.46875 85.539062 34.441406 83.382812 C 33.371094 82.289062 32.289062 81.066406 31.441406 79.917969 C 29.582031 77.390625 30.011719 74.46875 30.457031 73.324219 C 32.785156 66.640625 35.710938 63.027344 37.171875 62.035156 C 37.976562 61.402344 40.125 60.589844 41.289062 60.40625 C 41.527344 61.070312 42.273438 62.394531 44.066406 62.394531 C 45.855469 62.394531 46.183594 61.070312 46.304688 60.40625 C 47.585938 60.4375 50.957031 61.148438 52.75 63.75 C 54.117188 65.738281 54.683594 67.488281 55.058594 68.652344 C 55.296875 69.394531 55.460938 69.898438 55.703125 70.074219 C 56.03125 70.308594 57.292969 69.058594 58.546875 67.816406 C 59.691406 66.683594 60.828125 65.554688 61.253906 65.554688 C 62.148438 65.554688 64.207031 67.363281 64.207031 68.445312 C 64.207031 69.53125 59.285156 78.746094 57.851562 79.738281 C 56.417969 80.730469 54.808594 80.191406 54.003906 79.195312 C 54.179688 81.152344 54.378906 86.132812 53.734375 86.785156 C 53.089844 87.433594 48.035156 87.597656 45.585938 87.597656 Z M 45.585938 87.597656 " fill-opacity="1" fill-rule="evenodd"/><path fill="#000000" d="M 41.410156 60.203125 L 41.460938 60.34375 C 41.691406 60.976562 42.390625 62.210938 44.066406 62.210938 C 44.910156 62.210938 45.382812 61.902344 45.667969 61.535156 C 45.957031 61.160156 46.0625 60.699219 46.125 60.375 L 46.152344 60.21875 L 46.308594 60.222656 C 46.972656 60.238281 48.15625 60.429688 49.40625 60.945312 C 50.652344 61.457031 51.976562 62.304688 52.898438 63.644531 C 54.28125 65.65625 54.855469 67.425781 55.230469 68.59375 L 55.230469 68.597656 C 55.351562 68.96875 55.449219 69.273438 55.546875 69.503906 C 55.644531 69.734375 55.726562 69.859375 55.800781 69.917969 C 55.808594 69.917969 55.816406 69.917969 55.832031 69.914062 C 55.875 69.90625 55.9375 69.882812 56.019531 69.832031 C 56.1875 69.738281 56.40625 69.574219 56.660156 69.359375 C 57.167969 68.925781 57.789062 68.308594 58.417969 67.683594 L 58.421875 67.679688 C 58.992188 67.117188 59.5625 66.550781 60.046875 66.121094 C 60.289062 65.910156 60.515625 65.726562 60.710938 65.597656 C 60.808594 65.53125 60.902344 65.476562 60.988281 65.4375 C 61.070312 65.398438 61.164062 65.371094 61.253906 65.371094 C 61.527344 65.371094 61.859375 65.503906 62.183594 65.695312 C 62.515625 65.890625 62.867188 66.160156 63.191406 66.460938 C 63.511719 66.761719 63.808594 67.101562 64.023438 67.4375 C 64.238281 67.769531 64.390625 68.125 64.390625 68.445312 C 64.390625 68.542969 64.363281 68.664062 64.328125 68.792969 C 64.289062 68.925781 64.234375 69.089844 64.164062 69.269531 C 64.023438 69.632812 63.824219 70.089844 63.582031 70.609375 C 63.09375 71.644531 62.433594 72.933594 61.726562 74.214844 C 61.019531 75.5 60.269531 76.785156 59.601562 77.808594 C 59.269531 78.320312 58.957031 78.773438 58.679688 79.125 C 58.40625 79.476562 58.160156 79.75 57.957031 79.890625 C 56.625 80.8125 55.148438 80.488281 54.226562 79.691406 C 54.300781 80.703125 54.367188 82.148438 54.359375 83.480469 C 54.355469 84.269531 54.324219 85.023438 54.253906 85.621094 C 54.21875 85.921875 54.171875 86.1875 54.113281 86.402344 C 54.054688 86.609375 53.980469 86.796875 53.863281 86.914062 C 53.75 87.03125 53.5625 87.113281 53.355469 87.183594 C 53.140625 87.253906 52.871094 87.3125 52.5625 87.367188 C 51.953125 87.476562 51.175781 87.558594 50.347656 87.621094 C 48.695312 87.742188 46.816406 87.78125 45.589844 87.78125 C 44.050781 87.8125 41.675781 87.832031 39.550781 87.785156 C 38.488281 87.765625 37.488281 87.726562 36.683594 87.667969 C 36.277344 87.640625 35.925781 87.605469 35.632812 87.5625 C 35.347656 87.519531 35.113281 87.472656 34.957031 87.40625 C 34.859375 87.371094 34.789062 87.296875 34.738281 87.21875 C 34.683594 87.140625 34.636719 87.042969 34.597656 86.933594 C 34.523438 86.714844 34.460938 86.425781 34.414062 86.085938 C 34.324219 85.414062 34.277344 84.507812 34.261719 83.460938 C 33.199219 82.375 32.132812 81.167969 31.296875 80.03125 C 29.386719 77.4375 29.824219 74.445312 30.285156 73.261719 C 31.453125 69.90625 32.773438 67.320312 33.984375 65.445312 C 35.195312 63.578125 36.304688 62.402344 37.0625 61.882812 C 37.492188 61.550781 38.246094 61.183594 39.03125 60.878906 C 39.820312 60.570312 40.660156 60.316406 41.261719 60.226562 Z M 46.453125 60.597656 C 46.382812 60.929688 46.253906 61.378906 45.953125 61.761719 C 45.597656 62.226562 45.011719 62.578125 44.066406 62.578125 C 42.285156 62.578125 41.476562 61.339844 41.175781 60.613281 C 40.621094 60.71875 39.875 60.945312 39.164062 61.222656 C 38.382812 61.527344 37.664062 61.878906 37.285156 62.179688 L 37.28125 62.183594 L 37.273438 62.1875 C 36.570312 62.664062 35.492188 63.792969 34.292969 65.644531 C 33.097656 67.496094 31.789062 70.058594 30.628906 73.386719 L 30.628906 73.394531 C 30.195312 74.496094 29.777344 77.347656 31.589844 79.808594 C 32.429688 80.949219 33.503906 82.160156 34.574219 83.253906 L 34.625 83.308594 L 34.625 83.382812 C 34.640625 84.457031 34.6875 85.371094 34.777344 86.035156 C 34.824219 86.367188 34.878906 86.625 34.945312 86.808594 C 34.976562 86.902344 35.007812 86.964844 35.039062 87.007812 C 35.070312 87.054688 35.089844 87.0625 35.089844 87.066406 C 35.203125 87.109375 35.402344 87.15625 35.6875 87.195312 C 35.964844 87.234375 36.308594 87.269531 36.707031 87.300781 C 37.503906 87.359375 38.5 87.394531 39.558594 87.417969 C 41.679688 87.460938 44.046875 87.441406 45.582031 87.414062 L 45.585938 87.414062 C 46.808594 87.414062 48.679688 87.371094 50.324219 87.25 C 51.144531 87.191406 51.90625 87.109375 52.5 87.003906 C 52.796875 86.953125 53.050781 86.894531 53.242188 86.832031 C 53.441406 86.765625 53.554688 86.703125 53.605469 86.652344 C 53.648438 86.609375 53.707031 86.5 53.761719 86.300781 C 53.8125 86.113281 53.855469 85.867188 53.890625 85.578125 C 53.957031 85 53.988281 84.261719 53.992188 83.480469 C 54.003906 81.914062 53.910156 80.1875 53.820312 79.214844 L 53.765625 78.613281 L 54.144531 79.078125 C 54.902344 80.011719 56.40625 80.515625 57.746094 79.585938 C 57.902344 79.480469 58.121094 79.246094 58.390625 78.898438 C 58.660156 78.554688 58.964844 78.113281 59.296875 77.605469 C 59.957031 76.589844 60.703125 75.316406 61.40625 74.039062 C 62.109375 72.757812 62.769531 71.476562 63.25 70.449219 C 63.492188 69.9375 63.6875 69.488281 63.824219 69.136719 C 63.890625 68.960938 63.941406 68.808594 63.976562 68.691406 C 64.011719 68.566406 64.023438 68.488281 64.023438 68.445312 C 64.023438 68.230469 63.917969 67.949219 63.71875 67.636719 C 63.519531 67.332031 63.246094 67.015625 62.941406 66.730469 C 62.636719 66.445312 62.304688 66.195312 62 66.015625 C 61.6875 65.832031 61.425781 65.742188 61.253906 65.742188 C 61.238281 65.742188 61.199219 65.746094 61.136719 65.777344 C 61.074219 65.804688 61 65.847656 60.914062 65.902344 C 60.738281 66.019531 60.527344 66.191406 60.289062 66.402344 C 59.8125 66.820312 59.25 67.378906 58.675781 67.945312 L 58.671875 67.949219 C 58.046875 68.570312 57.414062 69.199219 56.894531 69.640625 C 56.636719 69.863281 56.398438 70.042969 56.199219 70.15625 C 56.097656 70.210938 56 70.257812 55.902344 70.277344 C 55.808594 70.296875 55.695312 70.292969 55.597656 70.222656 C 55.429688 70.101562 55.3125 69.890625 55.210938 69.648438 C 55.105469 69.398438 55.003906 69.082031 54.886719 68.71875 L 54.882812 68.710938 C 54.507812 67.550781 53.949219 65.820312 52.597656 63.855469 C 51.730469 62.59375 50.472656 61.78125 49.265625 61.285156 C 48.152344 60.824219 47.097656 60.636719 46.453125 60.597656 Z M 46.453125 60.597656 " fill-opacity="1" fill-rule="evenodd"/><path fill="#ffffff" d="M 40.796875 78.394531 C 41.050781 78.222656 41.390625 78.292969 41.558594 78.546875 L 45.550781 84.535156 C 45.71875 84.789062 45.652344 85.132812 45.398438 85.300781 L 37.300781 90.796875 C 37.050781 90.964844 36.707031 90.898438 36.539062 90.644531 L 32.550781 84.65625 C 32.382812 84.402344 32.449219 84.058594 32.699219 83.886719 Z M 40.796875 78.394531 " fill-opacity="1" fill-rule="nonzero"/><path fill="#000000" d="M 40.695312 78.242188 C 41.03125 78.015625 41.488281 78.105469 41.710938 78.441406 L 45.699219 84.429688 C 45.925781 84.769531 45.835938 85.226562 45.5 85.457031 L 37.402344 90.949219 C 37.066406 91.175781 36.613281 91.085938 36.386719 90.75 L 32.398438 84.761719 C 32.171875 84.421875 32.261719 83.960938 32.597656 83.734375 Z M 41.40625 78.648438 C 41.296875 78.480469 41.066406 78.433594 40.898438 78.546875 L 32.800781 84.042969 C 32.632812 84.15625 32.589844 84.382812 32.703125 84.554688 L 36.691406 90.542969 C 36.804688 90.710938 37.03125 90.757812 37.199219 90.640625 L 45.296875 85.148438 C 45.464844 85.035156 45.511719 84.804688 45.398438 84.636719 Z M 41.40625 78.648438 " fill-opacity="1" fill-rule="evenodd"/><path fill="#ffffff" d="M 42.183594 85.066406 C 41.613281 84.777344 41.289062 84.464844 41.199219 84.347656 C 40.753906 84.859375 39.804688 86.0625 39.589844 86.785156 C 39.320312 87.6875 40.753906 89.042969 41.199219 89.132812 C 41.648438 89.222656 42.992188 88.410156 43.257812 87.960938 C 43.472656 87.597656 42.992188 86.933594 42.722656 86.695312 C 42.871094 86.484375 43.402344 86.242188 43.257812 85.882812 C 43.082031 85.429688 42.902344 85.429688 42.183594 85.066406 Z M 42.183594 85.066406 " fill-opacity="1" fill-rule="nonzero"/><path fill="#000000" d="M 41.210938 84.054688 L 41.347656 84.234375 C 41.414062 84.328125 41.710938 84.625 42.265625 84.902344 C 42.398438 84.96875 42.515625 85.023438 42.613281 85.074219 C 42.648438 85.089844 42.679688 85.101562 42.707031 85.117188 C 42.828125 85.175781 42.933594 85.226562 43.023438 85.285156 C 43.21875 85.410156 43.328125 85.558594 43.429688 85.8125 C 43.546875 86.105469 43.371094 86.335938 43.230469 86.476562 C 43.167969 86.535156 43.101562 86.59375 43.042969 86.640625 C 43.03125 86.652344 43.019531 86.660156 43.007812 86.671875 C 42.996094 86.679688 42.988281 86.6875 42.980469 86.695312 C 43.101562 86.828125 43.234375 87.007812 43.332031 87.195312 C 43.402344 87.324219 43.460938 87.46875 43.484375 87.613281 C 43.507812 87.757812 43.5 87.914062 43.417969 88.054688 C 43.332031 88.195312 43.175781 88.347656 43.003906 88.488281 C 42.824219 88.632812 42.609375 88.78125 42.390625 88.910156 C 42.167969 89.039062 41.941406 89.148438 41.734375 89.226562 C 41.539062 89.296875 41.328125 89.347656 41.164062 89.3125 C 41.078125 89.296875 40.988281 89.253906 40.898438 89.203125 C 40.808594 89.152344 40.710938 89.082031 40.609375 89 C 40.40625 88.839844 40.183594 88.621094 39.984375 88.382812 C 39.789062 88.140625 39.609375 87.867188 39.496094 87.589844 C 39.382812 87.3125 39.332031 87.011719 39.414062 86.730469 C 39.53125 86.339844 39.839844 85.835938 40.15625 85.378906 C 40.484375 84.917969 40.835938 84.484375 41.0625 84.222656 Z M 40.457031 85.59375 C 40.136719 86.046875 39.863281 86.507812 39.765625 86.835938 C 39.714844 87.007812 39.738281 87.214844 39.835938 87.449219 C 39.929688 87.683594 40.085938 87.921875 40.265625 88.144531 C 40.449219 88.367188 40.652344 88.566406 40.835938 88.710938 C 40.925781 88.78125 41.011719 88.839844 41.082031 88.882812 C 41.15625 88.925781 41.210938 88.945312 41.238281 88.953125 C 41.292969 88.964844 41.421875 88.949219 41.609375 88.878906 C 41.789062 88.8125 42 88.710938 42.207031 88.589844 C 42.410156 88.46875 42.609375 88.332031 42.773438 88.203125 C 42.9375 88.066406 43.050781 87.949219 43.101562 87.863281 C 43.125 87.824219 43.136719 87.761719 43.125 87.671875 C 43.109375 87.582031 43.070312 87.480469 43.011719 87.367188 C 42.894531 87.148438 42.71875 86.9375 42.601562 86.832031 L 42.476562 86.722656 L 42.574219 86.585938 C 42.625 86.511719 42.707031 86.441406 42.773438 86.386719 C 42.785156 86.375 42.800781 86.363281 42.816406 86.351562 C 42.871094 86.304688 42.925781 86.261719 42.972656 86.210938 C 43.097656 86.089844 43.117188 86.015625 43.089844 85.949219 C 43.011719 85.753906 42.941406 85.671875 42.824219 85.597656 C 42.757812 85.550781 42.671875 85.507812 42.550781 85.449219 C 42.523438 85.4375 42.492188 85.421875 42.460938 85.40625 C 42.359375 85.359375 42.242188 85.304688 42.101562 85.234375 C 41.679688 85.019531 41.382812 84.789062 41.207031 84.621094 C 40.992188 84.875 40.714844 85.226562 40.457031 85.59375 Z M 40.457031 85.59375 " fill-opacity="1" fill-rule="evenodd"/><path fill="#ffffff" d="M 31.441406 79.917969 C 29.582031 77.390625 30.011719 74.46875 30.457031 73.324219 L 37.171875 75.492188 C 37.171875 77.027344 41.917969 83.082031 41.648438 84.34375 C 41.378906 85.609375 39.5 87.144531 38.695312 86.964844 C 37.886719 86.785156 33.769531 83.082031 31.441406 79.917969 Z M 31.441406 79.917969 " fill-opacity="1" fill-rule="nonzero"/><path fill="#000000" d="M 31.296875 80.03125 C 29.382812 77.433594 29.824219 74.441406 30.289062 73.257812 L 30.628906 73.394531 C 30.195312 74.496094 29.777344 77.347656 31.589844 79.808594 C 32.746094 81.378906 34.347656 83.085938 35.765625 84.425781 C 36.472656 85.09375 37.128906 85.667969 37.660156 86.085938 C 37.925781 86.296875 38.15625 86.464844 38.34375 86.585938 C 38.539062 86.710938 38.667969 86.769531 38.734375 86.785156 C 38.875 86.816406 39.097656 86.777344 39.378906 86.644531 C 39.65625 86.511719 39.960938 86.308594 40.253906 86.058594 C 40.847656 85.546875 41.347656 84.882812 41.46875 84.308594 C 41.492188 84.203125 41.464844 84.015625 41.359375 83.726562 C 41.261719 83.449219 41.101562 83.113281 40.902344 82.730469 C 40.496094 81.96875 39.933594 81.050781 39.355469 80.117188 C 39.328125 80.070312 39.296875 80.023438 39.265625 79.976562 C 38.71875 79.09375 38.167969 78.203125 37.75 77.4375 C 37.527344 77.03125 37.339844 76.65625 37.207031 76.332031 C 37.074219 76.015625 36.988281 75.722656 36.988281 75.492188 L 37.355469 75.492188 C 37.355469 75.648438 37.417969 75.878906 37.542969 76.191406 C 37.671875 76.496094 37.851562 76.859375 38.070312 77.257812 C 38.484375 78.015625 39.03125 78.898438 39.578125 79.785156 C 39.609375 79.832031 39.636719 79.875 39.667969 79.921875 C 40.242188 80.851562 40.8125 81.78125 41.222656 82.558594 C 41.429688 82.945312 41.597656 83.300781 41.703125 83.601562 C 41.808594 83.894531 41.871094 84.171875 41.828125 84.382812 C 41.679688 85.074219 41.109375 85.808594 40.492188 86.339844 C 40.179688 86.605469 39.847656 86.832031 39.535156 86.976562 C 39.230469 87.121094 38.914062 87.203125 38.652344 87.144531 C 38.519531 87.117188 38.34375 87.019531 38.148438 86.894531 C 37.949219 86.765625 37.707031 86.589844 37.4375 86.378906 C 36.894531 85.953125 36.226562 85.371094 35.515625 84.695312 C 34.089844 83.347656 32.46875 81.621094 31.296875 80.03125 Z M 31.296875 80.03125 " fill-opacity="1" fill-rule="evenodd"/><path fill="#000000" d="M 53.285156 70.253906 L 54.003906 79.285156 C 54.289062 79.503906 54.835938 79.917969 55.078125 80.007812 C 55.003906 79.285156 53.851562 73.203125 53.285156 70.253906 Z M 53.285156 70.253906 " fill-opacity="1" fill-rule="nonzero"/><path fill="#000000" d="M 30.546875 73.144531 C 31.203125 74.167969 32.320312 76.992188 31.53125 80.101562 C 30.695312 79.195312 29.332031 76.539062 30.546875 73.144531 Z M 30.546875 73.144531 " fill-opacity="1" fill-rule="nonzero"/><path fill="#000000" d="M 54.003906 79.195312 C 56.152344 78.183594 57.941406 78.59375 58.566406 78.925781 C 58.359375 79.347656 57.617188 80.207031 56.328125 80.28125 C 55.039062 80.351562 54.242188 79.589844 54.003906 79.195312 Z M 54.003906 79.195312 " fill-opacity="1" fill-rule="nonzero"/><path fill="#000000" d="M 38.335938 75.671875 C 38.265625 74.226562 38.84375 71.699219 39.140625 70.613281 C 38.960938 70.886719 38.460938 71.734375 37.886719 72.964844 C 37.171875 74.5 36.992188 75.492188 37.441406 76.394531 C 37.632812 76.789062 38.378906 78.078125 39.191406 79.46875 L 39.589844 79.132812 C 38.957031 77.839844 38.382812 76.609375 38.335938 75.671875 Z M 38.335938 75.671875 " fill-opacity="1" fill-rule="nonzero"/><g clip-path="url(#795a52dd97)"><path fill="#ffffff" d="M 44.421875 89.765625 L 43.796875 92.023438 L 44.421875 92.023438 Z M 44.421875 89.765625 " fill-opacity="1" fill-rule="nonzero"/></g><path fill="#000000" d="M 43.976562 58.871094 C 44.835938 59.160156 45.558594 58.992188 45.855469 58.871094 L 46.125 60.136719 C 44.976562 59.992188 44.214844 59.203125 43.976562 58.871094 Z M 43.976562 58.871094 " fill-opacity="1" fill-rule="nonzero"/><path fill="#000000" d="M 53.835938 51.871094 L 54.238281 51.234375 C 54.308594 51.121094 54.480469 51.167969 54.488281 51.300781 L 54.523438 52.035156 C 54.527344 52.078125 54.550781 52.121094 54.585938 52.144531 L 55.253906 52.574219 C 55.359375 52.644531 55.324219 52.8125 55.195312 52.828125 L 54.402344 52.925781 C 54.363281 52.933594 54.328125 52.953125 54.304688 52.988281 L 53.804688 53.722656 C 53.730469 53.832031 53.5625 53.78125 53.554688 53.648438 L 53.527344 52.8125 C 53.527344 52.769531 53.507812 52.734375 53.476562 52.707031 L 52.769531 52.148438 C 52.664062 52.066406 52.726562 51.898438 52.859375 51.902344 L 53.71875 51.933594 C 53.765625 51.9375 53.8125 51.914062 53.835938 51.871094 Z M 53.835938 51.871094 " fill-opacity="1" fill-rule="nonzero"/><path fill="#000000" d="M 58.679688 59.738281 L 58.882812 59.609375 C 58.996094 59.539062 59.128906 59.65625 59.078125 59.78125 L 58.992188 60 C 58.972656 60.039062 58.976562 60.085938 59 60.125 L 59.15625 60.375 C 59.222656 60.484375 59.117188 60.621094 58.996094 60.578125 L 58.710938 60.480469 C 58.675781 60.46875 58.636719 60.472656 58.601562 60.492188 L 58.3125 60.664062 C 58.199219 60.730469 58.066406 60.613281 58.121094 60.488281 L 58.238281 60.207031 C 58.253906 60.171875 58.253906 60.128906 58.238281 60.089844 L 58.085938 59.785156 C 58.027344 59.664062 58.152344 59.539062 58.269531 59.601562 L 58.542969 59.746094 C 58.585938 59.769531 58.636719 59.765625 58.679688 59.738281 Z M 58.679688 59.738281 " fill-opacity="1" fill-rule="nonzero"/><path fill="#ffffff" d="M 61.011719 46.773438 C 61.011719 46.5 61.230469 46.277344 61.503906 46.277344 L 74.320312 46.277344 C 74.59375 46.277344 74.8125 46.5 74.8125 46.773438 L 74.8125 54.128906 C 74.8125 54.402344 74.59375 54.625 74.320312 54.625 L 61.503906 54.625 C 61.230469 54.625 61.011719 54.402344 61.011719 54.128906 Z M 61.011719 46.773438 " fill-opacity="1" fill-rule="nonzero"/><path fill="#000000" d="M 60.847656 46.773438 C 60.847656 46.40625 61.140625 46.113281 61.503906 46.113281 L 74.320312 46.113281 C 74.683594 46.113281 74.976562 46.40625 74.976562 46.773438 L 74.976562 54.128906 C 74.976562 54.496094 74.683594 54.792969 74.320312 54.792969 L 61.503906 54.792969 C 61.140625 54.792969 60.847656 54.496094 60.847656 54.128906 Z M 61.503906 46.441406 C 61.320312 46.441406 61.175781 46.589844 61.175781 46.773438 L 61.175781 54.128906 C 61.175781 54.3125 61.320312 54.460938 61.503906 54.460938 L 74.320312 54.460938 C 74.5 54.460938 74.648438 54.3125 74.648438 54.128906 L 74.648438 46.773438 C 74.648438 46.589844 74.5 46.441406 74.320312 46.441406 Z M 61.503906 46.441406 " fill-opacity="1" fill-rule="evenodd"/><path fill="#f2545b" d="M 63.769531 52.027344 C 63.253906 52.84375 62.757812 53.171875 62.574219 53.234375 L 73.15625 53.234375 L 73.15625 50.082031 C 72.941406 49.492188 72.328125 48.316406 71.132812 48.316406 C 69.382812 48.316406 69.292969 52.027344 67.910156 52.027344 C 66.808594 52.027344 66.808594 50.730469 65.425781 50.730469 C 64.875 50.730469 64.414062 51.007812 63.769531 52.027344 Z M 63.769531 52.027344 " fill-opacity="1" fill-rule="nonzero"/><path fill="#000000" d="M 72.992188 53.070312 L 72.992188 47.574219 L 73.320312 47.574219 L 73.320312 53.398438 L 62.484375 53.398438 L 62.484375 53.070312 Z M 72.992188 53.070312 " fill-opacity="1" fill-rule="evenodd"/><path fill="#f2545b" d="M 62.667969 48.113281 C 62.667969 48.019531 62.742188 47.945312 62.832031 47.945312 L 66.183594 47.945312 C 66.273438 47.945312 66.347656 48.019531 66.347656 48.113281 L 66.347656 48.523438 C 66.347656 48.613281 66.273438 48.6875 66.183594 48.6875 L 62.832031 48.6875 C 62.742188 48.6875 62.667969 48.613281 62.667969 48.523438 Z M 62.667969 48.113281 " fill-opacity="1" fill-rule="nonzero"/><path fill="#ffffff" d="M 22.511719 67.691406 C 23.609375 66.875 23.941406 65.808594 23.972656 65.375 L 26.898438 65.375 C 26.992188 66.148438 26.9375 67.820312 25.984375 68.339844 C 25.035156 68.859375 24.796875 70.472656 24.796875 71.214844 C 24.210938 70.84375 22.417969 70.9375 21.597656 71.03125 C 21.441406 70.257812 21.414062 68.507812 22.511719 67.691406 Z M 22.511719 67.691406 " fill-opacity="1" fill-rule="nonzero"/><path fill="#ffffff" d="M 20.222656 58.886719 C 23.371094 58.515625 25.375 59.535156 25.984375 60.089844 L 27.8125 56.847656 C 24.886719 54.84375 21.535156 55.640625 20.222656 56.289062 Z M 20.222656 58.886719 " fill-opacity="1" fill-rule="nonzero"/><path fill="#ffffff" d="M 30.921875 56.289062 L 29.824219 54.34375 C 30.191406 54.21875 31.070312 53.527344 31.65625 51.746094 C 32.238281 49.96875 34.03125 49.953125 34.855469 50.171875 L 35.128906 52.023438 C 34.460938 52.242188 33.667969 52.210938 33.300781 54.34375 C 33.023438 55.949219 31.65625 56.445312 30.921875 56.289062 Z M 30.921875 56.289062 " fill-opacity="1" fill-rule="nonzero"/><path fill="#000000" d="M 33.117188 50.054688 C 33.777344 49.84375 34.460938 49.898438 34.898438 50.011719 L 35 50.039062 L 35.3125 52.140625 L 35.179688 52.183594 C 35.09375 52.210938 35.011719 52.234375 34.929688 52.253906 C 34.667969 52.328125 34.433594 52.394531 34.207031 52.589844 C 33.921875 52.839844 33.644531 53.320312 33.460938 54.371094 C 33.167969 56.078125 31.703125 56.625 30.890625 56.453125 L 30.816406 56.4375 L 29.585938 54.25 L 29.773438 54.1875 C 29.917969 54.136719 30.207031 53.957031 30.53125 53.558594 C 30.855469 53.167969 31.210938 52.566406 31.5 51.695312 C 31.8125 50.75 32.449219 50.265625 33.117188 50.054688 Z M 33.214844 50.367188 C 32.636719 50.550781 32.085938 50.964844 31.808594 51.800781 C 31.511719 52.707031 31.136719 53.34375 30.785156 53.769531 C 30.519531 54.09375 30.261719 54.304688 30.058594 54.417969 L 31.027344 56.140625 C 31.695312 56.230469 32.890625 55.769531 33.140625 54.316406 C 33.324219 53.234375 33.625 52.664062 33.992188 52.339844 C 34.28125 52.089844 34.605469 52 34.878906 51.925781 C 34.902344 51.917969 34.925781 51.914062 34.945312 51.90625 L 34.710938 50.304688 C 34.320312 50.222656 33.753906 50.195312 33.214844 50.367188 Z M 20.386719 56.394531 L 20.386719 58.699219 C 23.25 58.40625 25.167969 59.25 25.9375 59.839844 L 27.597656 56.898438 C 24.832031 55.089844 21.707031 55.777344 20.386719 56.394531 Z M 20.152344 56.140625 C 21.492188 55.476562 24.914062 54.660156 27.90625 56.710938 L 28.03125 56.792969 L 26.027344 60.351562 L 25.875 60.214844 C 25.304688 59.695312 23.351562 58.683594 20.242188 59.050781 L 20.058594 59.070312 L 20.058594 56.1875 Z M 23.820312 65.210938 L 27.046875 65.210938 L 27.0625 65.355469 C 27.109375 65.753906 27.121094 66.386719 26.992188 66.988281 C 26.871094 67.582031 26.601562 68.191406 26.0625 68.488281 C 25.644531 68.714844 25.363281 69.199219 25.191406 69.746094 C 25.019531 70.285156 24.960938 70.859375 24.960938 71.214844 L 24.960938 71.515625 L 24.710938 71.355469 C 24.589844 71.28125 24.398438 71.222656 24.140625 71.179688 C 23.886719 71.140625 23.589844 71.121094 23.28125 71.113281 C 22.667969 71.101562 22.019531 71.148438 21.613281 71.195312 L 21.464844 71.210938 L 21.433594 71.0625 C 21.355469 70.660156 21.308594 70.007812 21.421875 69.347656 C 21.539062 68.691406 21.816406 68.003906 22.414062 67.558594 C 23.46875 66.773438 23.78125 65.75 23.808594 65.363281 Z M 24.117188 65.539062 C 24.027344 66.074219 23.636719 67.058594 22.609375 67.824219 C 22.105469 68.199219 21.851562 68.792969 21.746094 69.40625 C 21.652344 69.941406 21.675781 70.476562 21.730469 70.847656 C 22.144531 70.808594 22.726562 70.773438 23.289062 70.785156 C 23.605469 70.789062 23.917969 70.808594 24.191406 70.851562 C 24.351562 70.878906 24.503906 70.914062 24.640625 70.960938 C 24.660156 70.589844 24.730469 70.109375 24.878906 69.644531 C 25.0625 69.070312 25.375 68.484375 25.90625 68.195312 C 26.316406 67.972656 26.554688 67.484375 26.671875 66.917969 C 26.777344 66.429688 26.78125 65.910156 26.75 65.539062 Z M 24.117188 65.539062 " fill-opacity="1" fill-rule="evenodd"/><path fill="#000000" d="M 23.3125 67.765625 C 23.09375 68.355469 23.464844 68.75 23.675781 68.871094 C 24.132812 68.964844 24.40625 68.871094 24.859375 68.226562 C 25.316406 67.582031 24.859375 67.214844 24.585938 67.121094 C 24.3125 67.03125 23.585938 67.03125 23.3125 67.765625 Z M 23.3125 67.765625 " fill-opacity="1" fill-rule="nonzero"/><path fill="#000000" d="M 24.769531 57.449219 C 24.914062 56.636719 24.222656 56.375 23.859375 56.34375 C 23.585938 56.3125 22.984375 56.398438 22.765625 56.988281 C 22.492188 57.726562 22.949219 58.1875 23.222656 58.277344 C 23.496094 58.371094 24.585938 58.460938 24.769531 57.449219 Z M 24.769531 57.449219 " fill-opacity="1" fill-rule="nonzero"/><path fill="#000000" d="M 32.699219 52.289062 C 32.40625 52.070312 32.03125 52.445312 31.878906 52.660156 C 31.726562 52.964844 31.515625 53.617188 31.878906 53.765625 C 32.332031 53.949219 32.699219 53.671875 32.878906 53.210938 C 33.0625 52.75 33.0625 52.566406 32.699219 52.289062 Z M 32.699219 52.289062 " fill-opacity="1" fill-rule="nonzero"/><path fill="#000000" d="M 70.320312 59.113281 L 55.84375 70.960938 L 41.28125 76.234375 L 26.75 83.160156 L 26.585938 82.816406 L 41.136719 75.882812 L 55.65625 70.625 L 70.082031 58.820312 Z M 70.320312 59.113281 " fill-opacity="1" fill-rule="evenodd"/><path fill="#ffffff" d="M 21.699219 87.992188 C 21.699219 87.679688 21.953125 87.425781 22.265625 87.425781 L 31.070312 87.425781 C 31.382812 87.425781 31.636719 87.679688 31.636719 87.992188 L 31.636719 91.289062 C 31.636719 91.605469 31.382812 91.859375 31.070312 91.859375 L 22.265625 91.859375 C 21.953125 91.859375 21.699219 91.605469 21.699219 91.289062 Z M 21.699219 87.992188 " fill-opacity="1" fill-rule="nonzero"/><g clip-path="url(#e1714d4dd9)"><path fill="#000000" d="M 21.507812 87.992188 C 21.507812 87.574219 21.847656 87.234375 22.265625 87.234375 L 31.070312 87.234375 C 31.488281 87.234375 31.828125 87.574219 31.828125 87.992188 L 31.828125 91.289062 C 31.828125 91.707031 31.488281 92.046875 31.070312 92.046875 L 22.265625 92.046875 C 21.847656 92.046875 21.507812 91.707031 21.507812 91.289062 Z M 22.265625 87.613281 C 22.054688 87.613281 21.886719 87.785156 21.886719 87.992188 L 21.886719 91.289062 C 21.886719 91.5 22.054688 91.667969 22.265625 91.667969 L 31.070312 91.667969 C 31.28125 91.667969 31.449219 91.5 31.449219 91.289062 L 31.449219 87.992188 C 31.449219 87.785156 31.28125 87.613281 31.070312 87.613281 Z M 22.265625 87.613281 " fill-opacity="1" fill-rule="evenodd"/></g><path fill="#ffffff" d="M 36.238281 83.558594 C 36.238281 83.242188 36.492188 82.988281 36.804688 82.988281 L 45.613281 82.988281 C 45.925781 82.988281 46.179688 83.242188 46.179688 83.558594 L 46.179688 91.289062 C 46.179688 91.605469 45.925781 91.859375 45.613281 91.859375 L 36.804688 91.859375 C 36.492188 91.859375 36.238281 91.605469 36.238281 91.289062 Z M 36.238281 83.558594 " fill-opacity="1" fill-rule="nonzero"/><g clip-path="url(#90a4cb3bf9)"><path fill="#000000" d="M 36.050781 83.558594 C 36.050781 83.140625 36.390625 82.800781 36.804688 82.800781 L 45.613281 82.800781 C 46.03125 82.800781 46.367188 83.140625 46.367188 83.558594 L 46.367188 91.289062 C 46.367188 91.707031 46.03125 92.046875 45.613281 92.046875 L 36.804688 92.046875 C 36.390625 92.046875 36.050781 91.707031 36.050781 91.289062 Z M 36.804688 83.179688 C 36.597656 83.179688 36.429688 83.347656 36.429688 83.558594 L 36.429688 91.289062 C 36.429688 91.5 36.597656 91.667969 36.804688 91.667969 L 45.613281 91.667969 C 45.820312 91.667969 45.992188 91.5 45.992188 91.289062 L 45.992188 83.558594 C 45.992188 83.347656 45.820312 83.179688 45.613281 83.179688 Z M 36.804688 83.179688 " fill-opacity="1" fill-rule="evenodd"/></g><path fill="#ffffff" d="M 50.78125 78.015625 C 50.78125 77.699219 51.035156 77.445312 51.347656 77.445312 L 60.15625 77.445312 C 60.46875 77.445312 60.71875 77.699219 60.71875 78.015625 L 60.71875 91.289062 C 60.71875 91.605469 60.46875 91.859375 60.15625 91.859375 L 51.347656 91.859375 C 51.035156 91.859375 50.78125 91.605469 50.78125 91.289062 Z M 50.78125 78.015625 " fill-opacity="1" fill-rule="nonzero"/><g clip-path="url(#d9825d64e7)"><path fill="#000000" d="M 50.59375 78.015625 C 50.59375 77.59375 50.929688 77.253906 51.347656 77.253906 L 60.15625 77.253906 C 60.570312 77.253906 60.910156 77.59375 60.910156 78.015625 L 60.910156 91.289062 C 60.910156 91.707031 60.570312 92.046875 60.15625 92.046875 L 51.347656 92.046875 C 50.929688 92.046875 50.59375 91.707031 50.59375 91.289062 Z M 51.347656 77.636719 C 51.136719 77.636719 50.96875 77.804688 50.96875 78.015625 L 50.96875 91.289062 C 50.96875 91.5 51.136719 91.667969 51.347656 91.667969 L 60.15625 91.667969 C 60.363281 91.667969 60.53125 91.5 60.53125 91.289062 L 60.53125 78.015625 C 60.53125 77.804688 60.363281 77.636719 60.15625 77.636719 Z M 51.347656 77.636719 " fill-opacity="1" fill-rule="evenodd"/></g><path fill="#000000" d="M 65.324219 67.480469 C 65.324219 67.167969 65.574219 66.914062 65.886719 66.914062 L 74.695312 66.914062 C 75.007812 66.914062 75.261719 67.167969 75.261719 67.480469 L 75.261719 91.289062 C 75.261719 91.605469 75.007812 91.859375 74.695312 91.859375 L 65.886719 91.859375 C 65.574219 91.859375 65.324219 91.605469 65.324219 91.289062 Z M 65.324219 67.480469 " fill-opacity="1" fill-rule="nonzero"/><path fill="#000000" d="M 27.957031 82.988281 C 27.957031 83.703125 27.378906 84.28125 26.667969 84.28125 C 25.957031 84.28125 25.378906 83.703125 25.378906 82.988281 C 25.378906 82.273438 25.957031 81.695312 26.667969 81.695312 C 27.378906 81.695312 27.957031 82.273438 27.957031 82.988281 Z M 27.957031 82.988281 " fill-opacity="1" fill-rule="nonzero"/><path fill="#000000" d="M 42.496094 76.152344 C 42.496094 76.867188 41.921875 77.445312 41.210938 77.445312 C 40.496094 77.445312 39.921875 76.867188 39.921875 76.152344 C 39.921875 75.4375 40.496094 74.859375 41.210938 74.859375 C 41.921875 74.859375 42.496094 75.4375 42.496094 76.152344 Z M 42.496094 76.152344 " fill-opacity="1" fill-rule="nonzero"/><path fill="#000000" d="M 57.039062 70.792969 C 57.039062 71.507812 56.460938 72.085938 55.75 72.085938 C 55.039062 72.085938 54.460938 71.507812 54.460938 70.792969 C 54.460938 70.078125 55.039062 69.5 55.75 69.5 C 56.460938 69.5 57.039062 70.078125 57.039062 70.792969 Z M 57.039062 70.792969 " fill-opacity="1" fill-rule="nonzero"/><path fill="#000000" d="M 71.582031 58.964844 C 71.582031 59.679688 71.003906 60.257812 70.292969 60.257812 C 69.582031 60.257812 69.003906 59.679688 69.003906 58.964844 C 69.003906 58.25 69.582031 57.671875 70.292969 57.671875 C 71.003906 57.671875 71.582031 58.25 71.582031 58.964844 Z M 71.582031 58.964844 " fill-opacity="1" fill-rule="nonzero"/></svg>