<svg xmlns="http://www.w3.org/2000/svg" xmlns:xlink="http://www.w3.org/1999/xlink" width="128" zoomAndPan="magnify" viewBox="0 0 96 95.999999" height="128" preserveAspectRatio="xMidYMid meet" version="1.0"><defs><clipPath id="1041c4d2e2"><path d="M 0 30.71875 L 96 30.71875 L 96 95.96875 L 0 95.96875 Z M 0 30.71875 " clip-rule="nonzero"/></clipPath><clipPath id="dae25c5a18"><path d="M 0 30.71875 L 96 30.71875 L 96 39 L 0 39 Z M 0 30.71875 " clip-rule="nonzero"/></clipPath><clipPath id="2e2e37ca07"><path d="M 0 30.71875 L 96 30.71875 L 96 42 L 0 42 Z M 0 30.71875 " clip-rule="nonzero"/></clipPath><clipPath id="ed25c7b8cc"><path d="M 0 30.71875 L 11 30.71875 L 11 40 L 0 40 Z M 0 30.71875 " clip-rule="nonzero"/></clipPath><clipPath id="8360361b6d"><path d="M 6 30.71875 L 16 30.71875 L 16 40 L 6 40 Z M 6 30.71875 " clip-rule="nonzero"/></clipPath><clipPath id="67635b66a9"><path d="M 12 30.71875 L 22 30.71875 L 22 40 L 12 40 Z M 12 30.71875 " clip-rule="nonzero"/></clipPath><clipPath id="5e5d72a539"><path d="M 69 52 L 73.765625 52 L 73.765625 56 L 69 56 Z M 69 52 " clip-rule="nonzero"/></clipPath><clipPath id="c81ad6faeb"><path d="M 67.015625 49.589844 L 73.765625 49.589844 L 73.765625 57.089844 L 67.015625 57.089844 Z M 67.015625 49.589844 " clip-rule="nonzero"/></clipPath></defs><g clip-path="url(#1041c4d2e2)"><path stroke-linecap="butt" transform="matrix(0.107865, 0, 0, 0.107826, -0.0539321, 30.673598)" fill-opacity="1" fill="#f2545b" fill-rule="evenodd" stroke-linejoin="miter" d="M 48.013018 2.99088 L 842.987004 2.99088 C 845.956568 2.99088 848.889918 3.208243 851.787053 3.570515 C 854.684189 3.969015 857.508896 4.512423 860.22496 5.273194 C 862.941025 6.033965 865.548447 6.975873 868.011012 8.062689 C 870.473577 9.149505 872.718857 10.38123 874.81928 11.794091 C 876.919704 13.170725 878.766628 14.692267 880.43248 16.322491 C 882.062119 17.952716 883.438259 19.691621 884.560899 21.502982 C 885.719753 23.350569 886.552679 25.198156 887.132106 27.154425 C 887.711533 29.074467 888.001247 31.030736 888.001247 32.987005 L 888.001247 572.989716 C 888.001247 574.982212 887.711533 576.938481 887.132106 578.858523 C 886.552679 580.778565 885.719753 582.662379 884.560899 584.47374 C 883.438259 586.2851 882.062119 588.024006 880.43248 589.65423 C 878.766628 591.320681 876.919704 592.805997 874.81928 594.218858 C 872.718857 595.595491 870.473577 596.863444 868.011012 597.95026 C 865.548447 599.037076 862.941025 599.978983 860.22496 600.703527 C 857.508896 601.464299 854.684189 602.043934 851.787053 602.406206 C 848.889918 602.804705 845.956568 602.985841 842.987004 602.985841 L 48.013018 602.985841 C 45.043454 602.985841 42.110104 602.804705 39.212969 602.406206 C 36.315833 602.043934 33.491126 601.464299 30.775062 600.703527 C 28.058997 599.978983 25.451575 599.037076 22.98901 597.95026 C 20.526445 596.863444 18.281165 595.595491 16.180741 594.218858 C 14.080318 592.805997 12.233394 591.320681 10.567541 589.65423 C 8.937903 588.024006 7.561763 586.2851 6.439123 584.47374 C 5.280269 582.662379 4.447343 580.778565 3.867915 578.858523 C 3.288488 576.938481 2.998775 574.982212 2.998775 572.989716 L 2.998775 32.987005 C 2.998775 31.030736 3.288488 29.074467 3.867915 27.154425 C 4.447343 25.198156 5.280269 23.350569 6.439123 21.502982 C 7.561763 19.691621 8.937903 17.952716 10.567541 16.322491 C 12.233394 14.692267 14.080318 13.170725 16.180741 11.794091 C 18.281165 10.38123 20.526445 9.149505 22.98901 8.062689 C 25.451575 6.975873 28.058997 6.033965 30.775062 5.273194 C 33.491126 4.512423 36.315833 3.969015 39.212969 3.570515 C 42.110104 3.208243 45.043454 2.99088 48.013018 2.99088 Z M 48.013018 2.99088 " stroke="#333333" stroke-width="5.002" stroke-opacity="1" stroke-miterlimit="4"/></g><g clip-path="url(#dae25c5a18)"><path fill="#ffffff" d="M 3.503906 30.996094 L 92.386719 30.996094 C 94.21875 30.996094 95.621094 32.398438 95.621094 34.230469 L 95.621094 38.652344 L 0.269531 38.652344 L 0.269531 34.230469 C 0.269531 32.398438 1.671875 30.996094 3.503906 30.996094 Z M 3.503906 30.996094 " fill-opacity="1" fill-rule="evenodd"/></g><g clip-path="url(#2e2e37ca07)"><path stroke-linecap="butt" transform="matrix(0.107865, 0, 0, 0.107826, -0.0539321, 30.673598)" fill="none" stroke-linejoin="miter" d="M 32.984127 2.99088 L 857.001897 2.99088 C 873.986354 2.99088 886.98725 15.996446 886.98725 32.987005 L 886.98725 73.996201 L 2.998775 73.996201 L 2.998775 32.987005 C 2.998775 15.996446 15.99967 2.99088 32.984127 2.99088 Z M 32.984127 2.99088 " stroke="#333333" stroke-width="5.002" stroke-opacity="1" stroke-miterlimit="4"/></g><path fill="#f2545b" d="M 7.171875 34.769531 C 7.171875 35 7.128906 35.21875 7.042969 35.429688 C 6.953125 35.644531 6.828125 35.828125 6.667969 35.992188 C 6.503906 36.152344 6.320312 36.277344 6.109375 36.363281 C 5.894531 36.453125 5.675781 36.496094 5.445312 36.496094 C 5.21875 36.496094 5 36.453125 4.785156 36.363281 C 4.574219 36.277344 4.386719 36.152344 4.226562 35.992188 C 4.066406 35.828125 3.941406 35.644531 3.851562 35.429688 C 3.765625 35.21875 3.722656 35 3.722656 34.769531 C 3.722656 34.542969 3.765625 34.320312 3.851562 34.109375 C 3.941406 33.898438 4.066406 33.710938 4.226562 33.550781 C 4.386719 33.390625 4.574219 33.265625 4.785156 33.175781 C 5 33.089844 5.21875 33.046875 5.445312 33.046875 C 5.675781 33.046875 5.894531 33.089844 6.109375 33.175781 C 6.320312 33.265625 6.503906 33.390625 6.667969 33.550781 C 6.828125 33.710938 6.953125 33.898438 7.042969 34.109375 C 7.128906 34.320312 7.171875 34.542969 7.171875 34.769531 Z M 7.171875 34.769531 " fill-opacity="1" fill-rule="nonzero"/><g clip-path="url(#ed25c7b8cc)"><path stroke-linecap="butt" transform="matrix(0.107865, 0, 0, 0.107826, -0.0539321, 30.673598)" fill="none" stroke-linejoin="miter" d="M 66.989256 37.98636 C 66.989256 40.123765 66.590899 42.152488 65.794187 44.108757 C 64.961261 46.101253 63.802406 47.803932 62.317624 49.325475 C 60.796628 50.81079 59.094561 51.970061 57.138995 52.767059 C 55.147214 53.600285 53.119219 53.998784 50.982582 53.998784 C 48.882159 53.998784 46.854164 53.600285 44.862383 52.767059 C 42.906817 51.970061 41.168535 50.81079 39.683753 49.325475 C 38.198971 47.803932 37.040117 46.101253 36.207191 44.108757 C 35.410478 42.152488 35.012122 40.123765 35.012122 37.98636 C 35.012122 35.885182 35.410478 33.820231 36.207191 31.863962 C 37.040117 29.907693 38.198971 28.168787 39.683753 26.683472 C 41.168535 25.198156 42.906817 24.038886 44.862383 23.20566 C 46.854164 22.408662 48.882159 22.010162 50.982582 22.010162 C 53.119219 22.010162 55.147214 22.408662 57.138995 23.20566 C 59.094561 24.038886 60.796628 25.198156 62.317624 26.683472 C 63.802406 28.168787 64.961261 29.907693 65.794187 31.863962 C 66.590899 33.820231 66.989256 35.885182 66.989256 37.98636 Z M 66.989256 37.98636 " stroke="#333333" stroke-width="5.002" stroke-opacity="1" stroke-miterlimit="4"/></g><path fill="#ffff00" d="M 12.890625 34.769531 C 12.890625 35 12.847656 35.21875 12.757812 35.429688 C 12.671875 35.644531 12.546875 35.828125 12.382812 35.992188 C 12.222656 36.152344 12.035156 36.277344 11.824219 36.363281 C 11.613281 36.453125 11.394531 36.496094 11.164062 36.496094 C 10.933594 36.496094 10.714844 36.453125 10.503906 36.363281 C 10.292969 36.277344 10.105469 36.152344 9.945312 35.992188 C 9.78125 35.828125 9.65625 35.644531 9.570312 35.429688 C 9.480469 35.21875 9.4375 35 9.4375 34.769531 C 9.4375 34.542969 9.480469 34.320312 9.570312 34.109375 C 9.65625 33.898438 9.78125 33.710938 9.945312 33.550781 C 10.105469 33.390625 10.292969 33.265625 10.503906 33.175781 C 10.714844 33.089844 10.933594 33.046875 11.164062 33.046875 C 11.394531 33.046875 11.613281 33.089844 11.824219 33.175781 C 12.035156 33.265625 12.222656 33.390625 12.382812 33.550781 C 12.546875 33.710938 12.671875 33.898438 12.757812 34.109375 C 12.847656 34.320312 12.890625 34.542969 12.890625 34.769531 Z M 12.890625 34.769531 " fill-opacity="1" fill-rule="nonzero"/><g clip-path="url(#8360361b6d)"><path stroke-linecap="butt" transform="matrix(0.107865, 0, 0, 0.107826, -0.0539321, 30.673598)" fill="none" stroke-linejoin="miter" d="M 120.006835 37.98636 C 120.006835 40.123765 119.608479 42.152488 118.775553 44.108757 C 117.978841 46.101253 116.819986 47.803932 115.29899 49.325475 C 113.814208 50.81079 112.075927 51.970061 110.120361 52.767059 C 108.164794 53.600285 106.136799 53.998784 104.000162 53.998784 C 101.863524 53.998784 99.835529 53.600285 97.879963 52.767059 C 95.924396 51.970061 94.186115 50.81079 92.701333 49.325475 C 91.180337 47.803932 90.021483 46.101253 89.224771 44.108757 C 88.391844 42.152488 87.993488 40.123765 87.993488 37.98636 C 87.993488 35.885182 88.391844 33.820231 89.224771 31.863962 C 90.021483 29.907693 91.180337 28.168787 92.701333 26.683472 C 94.186115 25.198156 95.924396 24.038886 97.879963 23.20566 C 99.835529 22.408662 101.863524 22.010162 104.000162 22.010162 C 106.136799 22.010162 108.164794 22.408662 110.120361 23.20566 C 112.075927 24.038886 113.814208 25.198156 115.29899 26.683472 C 116.819986 28.168787 117.978841 29.907693 118.775553 31.863962 C 119.608479 33.820231 120.006835 35.885182 120.006835 37.98636 Z M 120.006835 37.98636 " stroke="#333333" stroke-width="5.002" stroke-opacity="1" stroke-miterlimit="4"/></g><path fill="#00ff00" d="M 18.714844 34.769531 C 18.714844 35 18.671875 35.21875 18.582031 35.429688 C 18.496094 35.644531 18.371094 35.828125 18.210938 35.992188 C 18.046875 36.152344 17.859375 36.277344 17.648438 36.363281 C 17.4375 36.453125 17.21875 36.496094 16.988281 36.496094 C 16.761719 36.496094 16.539062 36.453125 16.328125 36.363281 C 16.117188 36.277344 15.929688 36.152344 15.769531 35.992188 C 15.605469 35.828125 15.480469 35.644531 15.394531 35.429688 C 15.308594 35.21875 15.261719 35 15.261719 34.769531 C 15.261719 34.542969 15.308594 34.320312 15.394531 34.109375 C 15.480469 33.898438 15.605469 33.710938 15.769531 33.550781 C 15.929688 33.390625 16.117188 33.265625 16.328125 33.175781 C 16.539062 33.089844 16.761719 33.046875 16.988281 33.046875 C 17.21875 33.046875 17.4375 33.089844 17.648438 33.175781 C 17.859375 33.265625 18.046875 33.390625 18.210938 33.550781 C 18.371094 33.710938 18.496094 33.898438 18.582031 34.109375 C 18.671875 34.320312 18.714844 34.542969 18.714844 34.769531 Z M 18.714844 34.769531 " fill-opacity="1" fill-rule="nonzero"/><g clip-path="url(#67635b66a9)"><path stroke-linecap="butt" transform="matrix(0.107865, 0, 0, 0.107826, -0.0539321, 30.673598)" fill="none" stroke-linejoin="miter" d="M 174.002199 37.98636 C 174.002199 40.123765 173.603843 42.152488 172.770916 44.108757 C 171.974204 46.101253 170.81535 47.803932 169.330568 49.325475 C 167.809572 50.81079 166.07129 51.970061 164.115724 52.767059 C 162.160157 53.600285 160.132162 53.998784 157.995525 53.998784 C 155.895102 53.998784 153.830893 53.600285 151.875326 52.767059 C 149.91976 51.970061 148.181478 50.81079 146.696696 49.325475 C 145.1757 47.803932 144.016846 46.101253 143.220134 44.108757 C 142.423422 42.152488 141.988851 40.123765 141.988851 37.98636 C 141.988851 35.885182 142.423422 33.820231 143.220134 31.863962 C 144.016846 29.907693 145.1757 28.168787 146.696696 26.683472 C 148.181478 25.198156 149.91976 24.038886 151.875326 23.20566 C 153.830893 22.408662 155.895102 22.010162 157.995525 22.010162 C 160.132162 22.010162 162.160157 22.408662 164.115724 23.20566 C 166.07129 24.038886 167.809572 25.198156 169.330568 26.683472 C 170.81535 28.168787 171.974204 29.907693 172.770916 31.863962 C 173.603843 33.820231 174.002199 35.885182 174.002199 37.98636 Z M 174.002199 37.98636 " stroke="#333333" stroke-width="5.002" stroke-opacity="1" stroke-miterlimit="4"/></g><path fill="#f2545b" d="M 36.074219 91.445312 L 64.4375 91.445312 C 67.640625 91.445312 70.691406 90.089844 72.839844 87.714844 L 74.609375 85.757812 C 77.183594 82.914062 77.40625 78.652344 75.148438 75.550781 C 72.949219 72.527344 73.101562 68.386719 75.523438 65.535156 L 75.972656 65.007812 C 79.550781 60.792969 78.511719 54.375 73.789062 51.511719 L 59.34375 42.746094 C 54.050781 39.535156 47.195312 40.785156 43.371094 45.660156 L 42.476562 46.796875 C 40.929688 48.773438 38.625 50.007812 36.125 50.199219 L 34.613281 50.316406 C 29.96875 50.675781 26.722656 55.082031 27.75 59.632812 C 28.5 62.957031 26.960938 66.378906 23.980469 68.023438 L 23.738281 68.15625 C 19.714844 70.371094 18.371094 75.515625 20.800781 79.417969 L 24.164062 84.824219 C 26.726562 88.941406 31.226562 91.445312 36.074219 91.445312 Z M 36.074219 91.445312 " fill-opacity="1" fill-rule="nonzero"/><path fill="#000000" d="M 70.96875 84.304688 C 71.015625 87.773438 68.652344 90.703125 67.449219 91.730469 L 65.609375 91.730469 C 66.976562 87.101562 69.238281 84.796875 70.507812 84.03125 C 70.71875 83.90625 70.96875 84.058594 70.96875 84.304688 Z M 70.96875 84.304688 " fill-opacity="1" fill-rule="nonzero"/><path fill="#ffffff" d="M 71.164062 72.917969 C 73.050781 80.015625 68.296875 88.417969 66.253906 91.546875 L 62.113281 91.546875 C 63.890625 78.15625 66.875 74.902344 70.644531 72.707031 C 70.847656 72.585938 71.105469 72.691406 71.164062 72.917969 Z M 71.164062 72.917969 " fill-opacity="1" fill-rule="nonzero"/><path fill="#000000" d="M 70.734375 72.863281 C 70.835938 72.808594 70.957031 72.859375 70.988281 72.964844 C 71.914062 76.460938 71.210938 80.292969 70.007812 83.65625 C 68.828125 86.960938 67.175781 89.789062 66.15625 91.363281 L 62.324219 91.363281 C 63.207031 84.796875 64.386719 80.71875 65.796875 78.015625 C 67.214844 75.289062 68.875 73.949219 70.734375 72.863281 Z M 71.34375 72.871094 C 71.25 72.523438 70.855469 72.367188 70.550781 72.546875 C 68.644531 73.660156 66.925781 75.046875 65.46875 77.84375 C 64.015625 80.632812 62.820312 84.820312 61.929688 91.523438 L 61.902344 91.730469 L 66.355469 91.730469 L 66.410156 91.648438 C 67.433594 90.074219 69.140625 87.179688 70.355469 83.78125 C 71.570312 80.386719 72.300781 76.472656 71.34375 72.871094 Z M 71.34375 72.871094 " fill-opacity="1" fill-rule="evenodd"/><path fill="#000000" d="M 64.488281 77.285156 C 66.117188 83.230469 64.253906 89.410156 63.035156 91.730469 L 59.996094 91.730469 C 59.3125 84.484375 62.089844 79.214844 63.914062 77.140625 C 64.09375 76.9375 64.417969 77.019531 64.488281 77.285156 Z M 64.488281 77.285156 " fill-opacity="1" fill-rule="nonzero"/><path fill="#000000" d="M 68.585938 77.96875 L 69.578125 75.179688 L 69.925781 75.304688 L 67.65625 81.6875 L 69.144531 81.238281 L 69.25 81.589844 L 67.503906 82.117188 L 65.4375 87.921875 L 67.296875 87.230469 L 67.425781 87.574219 L 65.277344 88.375 L 64.128906 91.609375 L 63.78125 91.484375 L 66.117188 84.914062 L 65.253906 82.488281 L 65.597656 82.367188 L 66.3125 84.367188 L 68.378906 78.554688 L 67.734375 76.402344 L 68.085938 76.296875 Z M 68.585938 77.96875 " fill-opacity="1" fill-rule="evenodd"/><path fill="#ffffff" d="M 62.933594 82.03125 L 63.40625 79.445312 L 63.765625 79.511719 L 62.8125 84.757812 L 64.050781 84.105469 L 64.222656 84.433594 L 62.730469 85.21875 L 61.914062 89.71875 L 62.9375 88.914062 L 63.164062 89.203125 L 61.8125 90.265625 L 61.558594 91.671875 L 61.195312 91.605469 L 61.851562 88 L 60.769531 86.59375 L 61.0625 86.367188 L 61.941406 87.511719 L 62.851562 82.484375 L 61.976562 81.539062 L 62.25 81.289062 Z M 62.933594 82.03125 " fill-opacity="1" fill-rule="evenodd"/><path fill="#ffffff" d="M 33.941406 46.4375 C 33.941406 45.757812 34.492188 45.207031 35.171875 45.207031 L 75.59375 45.207031 C 76.273438 45.207031 76.820312 45.757812 76.820312 46.4375 L 76.820312 81.191406 C 76.820312 81.871094 76.273438 82.421875 75.59375 82.421875 L 35.171875 82.421875 C 34.492188 82.421875 33.941406 81.871094 33.941406 81.191406 Z M 33.941406 46.4375 " fill-opacity="1" fill-rule="nonzero"/><path fill="#000000" d="M 33.757812 46.4375 C 33.757812 45.65625 34.390625 45.023438 35.171875 45.023438 L 75.59375 45.023438 C 76.375 45.023438 77.007812 45.65625 77.007812 46.4375 L 77.007812 81.191406 C 77.007812 81.972656 76.375 82.605469 75.59375 82.605469 L 35.171875 82.605469 C 34.390625 82.605469 33.757812 81.972656 33.757812 81.191406 Z M 35.171875 45.390625 C 34.59375 45.390625 34.125 45.859375 34.125 46.4375 L 34.125 81.191406 C 34.125 81.769531 34.59375 82.234375 35.171875 82.234375 L 75.59375 82.234375 C 76.171875 82.234375 76.636719 81.769531 76.636719 81.191406 L 76.636719 46.4375 C 76.636719 45.859375 76.171875 45.390625 75.59375 45.390625 Z M 35.171875 45.390625 " fill-opacity="1" fill-rule="evenodd"/><path fill="#000000" d="M 33.941406 46.4375 C 33.941406 45.757812 34.492188 45.207031 35.171875 45.207031 L 75.59375 45.207031 C 76.273438 45.207031 76.820312 45.757812 76.820312 46.4375 L 76.820312 49.445312 L 33.941406 49.445312 Z M 33.941406 46.4375 " fill-opacity="1" fill-rule="nonzero"/><path fill="#ffffff" d="M 37.828125 47.355469 C 37.828125 47.867188 37.414062 48.277344 36.90625 48.277344 C 36.398438 48.277344 35.988281 47.867188 35.988281 47.355469 C 35.988281 46.847656 36.398438 46.4375 36.90625 46.4375 C 37.414062 46.4375 37.828125 46.847656 37.828125 47.355469 Z M 37.828125 47.355469 " fill-opacity="1" fill-rule="nonzero"/><path fill="#ffffff" d="M 40.894531 47.355469 C 40.894531 47.867188 40.480469 48.277344 39.972656 48.277344 C 39.464844 48.277344 39.054688 47.867188 39.054688 47.355469 C 39.054688 46.847656 39.464844 46.4375 39.972656 46.4375 C 40.480469 46.4375 40.894531 46.847656 40.894531 47.355469 Z M 40.894531 47.355469 " fill-opacity="1" fill-rule="nonzero"/><path fill="#ffffff" d="M 43.960938 47.355469 C 43.960938 47.867188 43.546875 48.277344 43.039062 48.277344 C 42.53125 48.277344 42.121094 47.867188 42.121094 47.355469 C 42.121094 46.847656 42.53125 46.4375 43.039062 46.4375 C 43.546875 46.4375 43.960938 46.847656 43.960938 47.355469 Z M 43.960938 47.355469 " fill-opacity="1" fill-rule="nonzero"/><path fill="#f2545b" d="M 39.09375 70.261719 C 39.09375 70.058594 39.261719 69.894531 39.464844 69.894531 L 44.25 69.894531 C 44.453125 69.894531 44.617188 70.058594 44.617188 70.261719 L 44.617188 76.894531 C 44.617188 77.097656 44.453125 77.261719 44.25 77.261719 L 39.464844 77.261719 C 39.261719 77.261719 39.09375 77.097656 39.09375 76.894531 Z M 39.09375 70.261719 " fill-opacity="1" fill-rule="nonzero"/><path fill="#f2545b" d="M 48.113281 66.761719 C 48.113281 66.558594 48.277344 66.394531 48.480469 66.394531 L 53.265625 66.394531 C 53.46875 66.394531 53.632812 66.558594 53.632812 66.761719 L 53.632812 76.894531 C 53.632812 77.097656 53.46875 77.261719 53.265625 77.261719 L 48.480469 77.261719 C 48.277344 77.261719 48.113281 77.097656 48.113281 76.894531 Z M 48.113281 66.761719 " fill-opacity="1" fill-rule="nonzero"/><path fill="#000000" d="M 57.128906 61.050781 C 57.128906 60.847656 57.296875 60.683594 57.5 60.683594 L 62.285156 60.683594 C 62.488281 60.683594 62.652344 60.847656 62.652344 61.050781 L 62.652344 76.894531 C 62.652344 77.097656 62.488281 77.261719 62.285156 77.261719 L 57.5 77.261719 C 57.296875 77.261719 57.128906 77.097656 57.128906 76.894531 Z M 57.128906 61.050781 " fill-opacity="1" fill-rule="nonzero"/><path fill="#f2545b" d="M 66.148438 64.917969 C 66.148438 64.714844 66.3125 64.550781 66.515625 64.550781 L 71.300781 64.550781 C 71.503906 64.550781 71.667969 64.714844 71.667969 64.917969 L 71.667969 76.894531 C 71.667969 77.097656 71.503906 77.261719 71.300781 77.261719 L 66.515625 77.261719 C 66.3125 77.261719 66.148438 77.097656 66.148438 76.894531 Z M 66.148438 64.917969 " fill-opacity="1" fill-rule="nonzero"/><path fill="#000000" d="M 39.09375 56.445312 C 39.09375 56.140625 39.34375 55.894531 39.648438 55.894531 L 46.273438 55.894531 C 46.578125 55.894531 46.824219 56.140625 46.824219 56.445312 L 46.824219 57 C 46.824219 57.304688 46.578125 57.550781 46.273438 57.550781 L 39.648438 57.550781 C 39.34375 57.550781 39.09375 57.304688 39.09375 57 Z M 39.09375 56.445312 " fill-opacity="1" fill-rule="nonzero"/><path fill="#f2545b" d="M 73.507812 54.050781 C 73.507812 55.066406 72.683594 55.894531 71.667969 55.894531 C 70.652344 55.894531 69.828125 55.066406 69.828125 54.050781 C 69.828125 53.03125 70.652344 52.207031 71.667969 52.207031 C 72.683594 52.207031 73.507812 53.03125 73.507812 54.050781 Z M 73.507812 54.050781 " fill-opacity="1" fill-rule="nonzero"/><path fill="#f2545b" d="M 59.878906 55.3125 L 68.992188 59.964844 L 68.824219 60.292969 L 59.902344 55.738281 L 50.953125 61.773438 L 41.910156 64.453125 L 41.804688 64.097656 L 50.792969 61.433594 Z M 59.878906 55.3125 " fill-opacity="1" fill-rule="evenodd"/><path fill="#000000" d="M 42.777344 64.183594 C 42.777344 64.691406 42.363281 65.105469 41.855469 65.105469 C 41.347656 65.105469 40.9375 64.691406 40.9375 64.183594 C 40.9375 63.675781 41.347656 63.261719 41.855469 63.261719 C 42.363281 63.261719 42.777344 63.675781 42.777344 64.183594 Z M 42.777344 64.183594 " fill-opacity="1" fill-rule="nonzero"/><path fill="#000000" d="M 51.792969 61.601562 C 51.792969 62.113281 51.382812 62.523438 50.875 62.523438 C 50.367188 62.523438 49.953125 62.113281 49.953125 61.601562 C 49.953125 61.09375 50.367188 60.683594 50.875 60.683594 C 51.382812 60.683594 51.792969 61.09375 51.792969 61.601562 Z M 51.792969 61.601562 " fill-opacity="1" fill-rule="nonzero"/><path fill="#000000" d="M 60.8125 55.523438 C 60.8125 56.03125 60.398438 56.445312 59.890625 56.445312 C 59.382812 56.445312 58.972656 56.03125 58.972656 55.523438 C 58.972656 55.015625 59.382812 54.601562 59.890625 54.601562 C 60.398438 54.601562 60.8125 55.015625 60.8125 55.523438 Z M 60.8125 55.523438 " fill-opacity="1" fill-rule="nonzero"/><path fill="#000000" d="M 69.828125 60.128906 C 69.828125 60.636719 69.417969 61.050781 68.910156 61.050781 C 68.402344 61.050781 67.988281 60.636719 67.988281 60.128906 C 67.988281 59.621094 68.402344 59.207031 68.910156 59.207031 C 69.417969 59.207031 69.828125 59.621094 69.828125 60.128906 Z M 69.828125 60.128906 " fill-opacity="1" fill-rule="nonzero"/><path fill="#f2545b" d="M 23.511719 55.417969 L 22.710938 55.449219 C 22.660156 55.453125 22.617188 55.425781 22.59375 55.382812 L 22.296875 54.847656 C 22.234375 54.734375 22.054688 54.78125 22.050781 54.914062 L 22.035156 55.542969 C 22.035156 55.585938 22.007812 55.628906 21.96875 55.652344 L 21.367188 56 C 21.253906 56.066406 21.292969 56.234375 21.421875 56.242188 L 22.132812 56.277344 C 22.175781 56.28125 22.214844 56.300781 22.234375 56.335938 L 22.535156 56.820312 C 22.601562 56.925781 22.773438 56.878906 22.777344 56.75 L 22.796875 56.191406 C 22.796875 56.144531 22.820312 56.105469 22.863281 56.082031 L 23.578125 55.65625 C 23.695312 55.585938 23.644531 55.410156 23.511719 55.417969 Z M 23.511719 55.417969 " fill-opacity="1" fill-rule="nonzero"/><path fill="#f2545b" d="M 28.21875 50.324219 L 27.738281 50.414062 C 27.707031 50.421875 27.679688 50.410156 27.660156 50.386719 L 27.433594 50.085938 C 27.386719 50.019531 27.28125 50.0625 27.292969 50.144531 L 27.335938 50.527344 C 27.335938 50.554688 27.324219 50.582031 27.304688 50.601562 L 26.96875 50.863281 C 26.902344 50.914062 26.941406 51.011719 27.019531 51.007812 L 27.457031 50.96875 C 27.484375 50.964844 27.507812 50.976562 27.523438 50.996094 L 27.746094 51.261719 C 27.796875 51.324219 27.894531 51.277344 27.886719 51.199219 L 27.851562 50.859375 C 27.847656 50.832031 27.859375 50.804688 27.882812 50.785156 L 28.28125 50.464844 C 28.347656 50.414062 28.300781 50.3125 28.21875 50.324219 Z M 28.21875 50.324219 " fill-opacity="1" fill-rule="nonzero"/><path fill="#ffffff" d="M 46.671875 71.191406 C 46.511719 71.8125 46.148438 72.472656 46.125 72.5625 L 47.539062 74.246094 C 47.699219 74.128906 48.132812 73.832031 48.585938 73.570312 C 49.15625 73.246094 50.269531 71.929688 50.585938 71.070312 C 50.90625 70.207031 49.832031 69.460938 49.21875 69.585938 C 48.945312 69.742188 48.105469 70.523438 47.71875 70.898438 C 47.761719 70.59375 47.777344 69.988281 47.464844 69.984375 C 47.078125 69.976562 46.828125 70.574219 46.671875 71.191406 Z M 46.671875 71.191406 " fill-opacity="1" fill-rule="nonzero"/><path fill="#000000" d="M 49.269531 69.722656 C 49.210938 69.757812 49.125 69.824219 49.015625 69.914062 C 48.894531 70.015625 48.75 70.136719 48.605469 70.265625 C 48.316406 70.527344 48.007812 70.816406 47.816406 71 L 47.515625 71.289062 L 47.578125 70.875 C 47.597656 70.730469 47.609375 70.519531 47.585938 70.351562 C 47.570312 70.265625 47.550781 70.203125 47.523438 70.164062 C 47.503906 70.132812 47.484375 70.125 47.464844 70.125 C 47.351562 70.125 47.230469 70.210938 47.105469 70.425781 C 46.984375 70.632812 46.886719 70.921875 46.808594 71.226562 C 46.726562 71.550781 46.59375 71.878906 46.476562 72.132812 C 46.425781 72.25 46.375 72.355469 46.339844 72.433594 C 46.335938 72.441406 46.332031 72.449219 46.328125 72.457031 C 46.3125 72.488281 46.300781 72.511719 46.292969 72.535156 L 47.566406 74.050781 C 47.773438 73.90625 48.136719 73.664062 48.515625 73.445312 C 48.777344 73.296875 49.183594 72.90625 49.570312 72.429688 C 49.957031 71.957031 50.304688 71.429688 50.453125 71.019531 C 50.585938 70.664062 50.4375 70.320312 50.15625 70.0625 C 49.882812 69.8125 49.519531 69.683594 49.269531 69.722656 Z M 50.347656 69.851562 C 50.679688 70.15625 50.90625 70.613281 50.722656 71.117188 C 50.554688 71.570312 50.183594 72.128906 49.792969 72.613281 C 49.402344 73.089844 48.964844 73.519531 48.65625 73.695312 C 48.207031 73.953125 47.78125 74.246094 47.625 74.359375 L 47.515625 74.4375 L 45.96875 72.597656 L 45.988281 72.523438 C 45.996094 72.5 46.007812 72.46875 46.019531 72.441406 C 46.03125 72.414062 46.050781 72.378906 46.070312 72.335938 C 46.074219 72.328125 46.078125 72.320312 46.082031 72.3125 C 46.117188 72.230469 46.167969 72.132812 46.21875 72.015625 C 46.332031 71.765625 46.457031 71.453125 46.53125 71.15625 C 46.613281 70.84375 46.71875 70.523438 46.859375 70.28125 C 46.996094 70.046875 47.191406 69.835938 47.46875 69.839844 C 47.601562 69.84375 47.699219 69.914062 47.761719 70.007812 C 47.820312 70.09375 47.851562 70.203125 47.867188 70.304688 C 47.878906 70.382812 47.882812 70.460938 47.882812 70.542969 C 48.046875 70.390625 48.234375 70.214844 48.417969 70.054688 C 48.5625 69.921875 48.707031 69.796875 48.832031 69.695312 C 48.957031 69.59375 49.070312 69.507812 49.148438 69.460938 L 49.167969 69.449219 L 49.191406 69.445312 C 49.558594 69.371094 50.023438 69.554688 50.347656 69.851562 Z M 50.347656 69.851562 " fill-opacity="1" fill-rule="evenodd"/><path fill="#ffffff" d="M 28.800781 59.273438 C 26.523438 60.886719 27.480469 63.753906 27.910156 64.863281 L 27.722656 67.128906 C 27.917969 67.84375 28.621094 69.269531 29.886719 69.269531 C 31.152344 69.269531 31.734375 68.050781 31.863281 67.441406 L 31.667969 65.722656 C 33.152344 65.183594 33.25 63.035156 33.152344 61.316406 C 33.03125 59.273438 30.804688 57.855469 28.800781 59.273438 Z M 28.800781 59.273438 " fill-opacity="1" fill-rule="nonzero"/><path fill="#000000" d="M 31.617188 59.125 C 30.839844 58.714844 29.839844 58.710938 28.882812 59.390625 C 27.792969 60.164062 27.476562 61.230469 27.484375 62.253906 C 27.492188 63.285156 27.828125 64.257812 28.042969 64.8125 L 28.054688 64.839844 L 27.867188 67.113281 C 27.960938 67.457031 28.179688 67.957031 28.515625 68.375 C 28.859375 68.804688 29.3125 69.125 29.886719 69.125 C 30.46875 69.125 30.894531 68.847656 31.191406 68.492188 C 31.488281 68.140625 31.65625 67.71875 31.71875 67.433594 L 31.511719 65.625 L 31.617188 65.589844 C 32.296875 65.34375 32.671875 64.726562 32.863281 63.929688 C 33.054688 63.128906 33.058594 62.179688 33.007812 61.324219 C 32.953125 60.355469 32.394531 59.535156 31.617188 59.125 Z M 27.578125 67.117188 L 27.765625 64.882812 C 27.546875 64.320312 27.207031 63.320312 27.199219 62.257812 C 27.191406 61.167969 27.53125 59.996094 28.71875 59.15625 C 29.761719 58.417969 30.878906 58.414062 31.75 58.871094 C 32.613281 59.328125 33.230469 60.238281 33.292969 61.308594 C 33.34375 62.171875 33.34375 63.15625 33.140625 63.996094 C 32.945312 64.800781 32.558594 65.5 31.820312 65.816406 L 32.007812 67.449219 L 32.003906 67.472656 C 31.933594 67.792969 31.746094 68.273438 31.410156 68.675781 C 31.070312 69.082031 30.570312 69.410156 29.886719 69.410156 C 29.195312 69.410156 28.664062 69.019531 28.292969 68.554688 C 27.933594 68.113281 27.707031 67.585938 27.597656 67.214844 L 27.570312 67.210938 Z M 27.578125 67.117188 " fill-opacity="1" fill-rule="evenodd"/><path fill="#000000" d="M 27.980469 64.300781 L 27.785156 66.25 C 27.71875 66.105469 27.566406 65.6875 27.488281 65.167969 C 27.390625 64.515625 25.8125 62.027344 26.304688 60.1875 C 26.699219 58.714844 27.785156 58.78125 28.277344 58.996094 C 28.570312 58.457031 30.34375 56.613281 32.90625 56.832031 C 35.46875 57.046875 35.761719 60.726562 33.695312 61.269531 C 32.039062 61.703125 30.179688 61.449219 29.457031 61.269531 C 29.394531 61.414062 29.203125 61.898438 28.964844 62.675781 C 28.671875 63.652344 28.671875 63.867188 28.570312 63.21875 C 28.472656 62.570312 28.078125 61.378906 27.585938 62.570312 C 27.191406 63.519531 27.683594 64.121094 27.980469 64.300781 Z M 27.980469 64.300781 " fill-opacity="1" fill-rule="nonzero"/><path fill="#000000" d="M 29.410156 65.683594 C 30.089844 66.082031 31.136719 65.851562 31.578125 65.683594 L 31.671875 66.382812 C 30.691406 66.625 29.757812 66.015625 29.410156 65.683594 Z M 29.410156 65.683594 " fill-opacity="1" fill-rule="nonzero"/><path fill="#ffffff" d="M 29.800781 68.25 C 31.179688 68.25 31.914062 67.492188 32.152344 67.042969 C 32.179688 66.992188 32.230469 66.957031 32.285156 66.957031 C 36.601562 67.03125 39.613281 72.023438 40.621094 74.613281 C 40.644531 74.667969 40.695312 74.703125 40.753906 74.699219 C 42.011719 74.574219 44.9375 72.164062 45.75 71.980469 C 46.585938 71.796875 48.164062 74.074219 48.257812 74.703125 C 48.351562 75.332031 44.636719 81.472656 43.058594 82.871094 C 42.164062 83.660156 40.972656 83.972656 40.089844 83.914062 C 39.996094 83.90625 39.917969 83.984375 39.929688 84.078125 C 40.25 86.632812 40.496094 89.40625 40.195312 90.105469 C 39.753906 91.136719 35.597656 91.855469 32.191406 91.855469 C 26.304688 91.855469 18.703125 91.707031 17.746094 90.75 C 16.550781 89.550781 18.113281 74.613281 20.78125 70.832031 C 22.867188 67.875 26.035156 66.910156 27.40625 66.953125 C 27.464844 66.953125 27.511719 66.992188 27.535156 67.042969 C 27.742188 67.492188 28.421875 68.25 29.800781 68.25 Z M 29.800781 68.25 " fill-opacity="1" fill-rule="nonzero"/><path fill="#000000" d="M 24.300781 67.636719 C 25.539062 67.027344 26.695312 66.789062 27.410156 66.808594 C 27.53125 66.8125 27.621094 66.894531 27.664062 66.984375 C 27.847656 67.386719 28.480469 68.105469 29.800781 68.105469 C 31.121094 68.105469 31.808594 67.382812 32.023438 66.976562 C 32.074219 66.882812 32.171875 66.8125 32.289062 66.816406 C 34.503906 66.851562 36.367188 68.152344 37.800781 69.746094 C 39.230469 71.339844 40.242188 73.246094 40.753906 74.554688 C 41.035156 74.523438 41.429688 74.363281 41.882812 74.121094 C 42.34375 73.878906 42.847656 73.5625 43.339844 73.242188 C 43.507812 73.132812 43.671875 73.023438 43.835938 72.917969 C 44.152344 72.710938 44.457031 72.511719 44.726562 72.34375 C 44.933594 72.214844 45.121094 72.105469 45.289062 72.019531 C 45.449219 71.933594 45.597656 71.871094 45.71875 71.84375 C 45.992188 71.78125 46.292969 71.925781 46.566406 72.125 C 46.847656 72.332031 47.132812 72.628906 47.394531 72.945312 C 47.652344 73.265625 47.890625 73.609375 48.066406 73.914062 C 48.242188 74.214844 48.371094 74.496094 48.398438 74.683594 C 48.410156 74.753906 48.390625 74.839844 48.367188 74.921875 C 48.34375 75.011719 48.304688 75.113281 48.257812 75.234375 C 48.160156 75.46875 48.011719 75.769531 47.832031 76.113281 C 47.46875 76.804688 46.964844 77.679688 46.40625 78.574219 C 45.847656 79.472656 45.234375 80.390625 44.664062 81.175781 C 44.09375 81.960938 43.558594 82.617188 43.152344 82.976562 C 42.226562 83.792969 41 84.121094 40.082031 84.054688 C 40.078125 84.054688 40.074219 84.054688 40.074219 84.058594 C 40.070312 84.058594 40.070312 84.058594 40.070312 84.058594 C 40.230469 85.339844 40.375 86.675781 40.4375 87.78125 C 40.46875 88.332031 40.484375 88.828125 40.46875 89.234375 C 40.453125 89.628906 40.414062 89.960938 40.328125 90.160156 C 40.257812 90.324219 40.121094 90.464844 39.949219 90.589844 C 39.773438 90.71875 39.550781 90.835938 39.292969 90.945312 C 38.777344 91.164062 38.097656 91.351562 37.332031 91.507812 C 35.804688 91.820312 33.902344 92 32.191406 92 C 29.246094 92 25.871094 91.960938 23.109375 91.804688 C 21.730469 91.726562 20.503906 91.617188 19.554688 91.46875 C 19.082031 91.394531 18.679688 91.308594 18.359375 91.210938 C 18.042969 91.113281 17.792969 90.996094 17.644531 90.851562 C 17.546875 90.75 17.472656 90.59375 17.417969 90.410156 C 17.359375 90.226562 17.316406 89.992188 17.28125 89.722656 C 17.214844 89.183594 17.1875 88.480469 17.199219 87.660156 C 17.21875 86.027344 17.386719 83.921875 17.671875 81.738281 C 17.960938 79.558594 18.371094 77.292969 18.875 75.332031 C 19.378906 73.382812 19.984375 71.714844 20.664062 70.75 C 21.726562 69.246094 23.058594 68.253906 24.300781 67.636719 Z M 24.425781 67.894531 C 23.21875 68.492188 21.925781 69.457031 20.898438 70.914062 C 20.246094 71.835938 19.65625 73.457031 19.152344 75.40625 C 18.652344 77.347656 18.242188 79.601562 17.957031 81.777344 C 17.667969 83.953125 17.503906 86.042969 17.484375 87.664062 C 17.472656 88.476562 17.5 89.164062 17.566406 89.6875 C 17.597656 89.949219 17.640625 90.164062 17.691406 90.328125 C 17.742188 90.496094 17.796875 90.597656 17.847656 90.648438 C 17.941406 90.742188 18.132812 90.839844 18.441406 90.9375 C 18.742188 91.027344 19.132812 91.113281 19.601562 91.1875 C 20.53125 91.332031 21.75 91.441406 23.128906 91.519531 C 25.878906 91.675781 29.246094 91.714844 32.191406 91.714844 C 33.886719 91.714844 35.765625 91.535156 37.277344 91.226562 C 38.03125 91.074219 38.691406 90.890625 39.183594 90.683594 C 39.429688 90.578125 39.632812 90.46875 39.78125 90.359375 C 39.933594 90.25 40.023438 90.144531 40.066406 90.046875 C 40.128906 89.902344 40.167969 89.621094 40.183594 89.222656 C 40.199219 88.832031 40.183594 88.34375 40.152344 87.796875 C 40.089844 86.699219 39.949219 85.371094 39.789062 84.097656 C 39.765625 83.90625 39.925781 83.757812 40.101562 83.769531 C 40.949219 83.828125 42.101562 83.527344 42.964844 82.761719 C 43.34375 82.425781 43.867188 81.789062 44.433594 81.007812 C 45 80.230469 45.609375 79.316406 46.164062 78.421875 C 46.71875 77.53125 47.222656 76.664062 47.578125 75.980469 C 47.757812 75.640625 47.898438 75.347656 47.992188 75.125 C 48.039062 75.011719 48.074219 74.917969 48.09375 74.84375 C 48.105469 74.808594 48.109375 74.78125 48.113281 74.757812 C 48.117188 74.746094 48.117188 74.738281 48.117188 74.734375 C 48.117188 74.726562 48.117188 74.726562 48.117188 74.726562 C 48.097656 74.597656 47.996094 74.359375 47.820312 74.058594 C 47.652344 73.765625 47.421875 73.433594 47.171875 73.128906 C 46.921875 72.820312 46.652344 72.542969 46.398438 72.355469 C 46.136719 72.160156 45.925781 72.089844 45.78125 72.121094 C 45.699219 72.140625 45.578125 72.191406 45.417969 72.273438 C 45.261719 72.355469 45.082031 72.460938 44.878906 72.585938 C 44.609375 72.753906 44.3125 72.949219 43.996094 73.15625 C 43.832031 73.261719 43.664062 73.371094 43.496094 73.480469 C 43 73.800781 42.488281 74.125 42.019531 74.375 C 41.554688 74.621094 41.113281 74.804688 40.769531 74.839844 C 40.640625 74.855469 40.53125 74.773438 40.488281 74.667969 L 40.621094 74.613281 L 40.742188 74.566406 M 40.621094 74.613281 L 40.488281 74.667969 C 39.988281 73.382812 38.992188 71.503906 37.585938 69.9375 C 36.183594 68.371094 34.386719 67.136719 32.285156 67.101562 C 32.28125 67.101562 32.277344 67.105469 32.277344 67.109375 C 32.015625 67.601562 31.238281 68.390625 29.800781 68.390625 C 28.359375 68.390625 27.632812 67.601562 27.40625 67.105469 C 27.402344 67.101562 27.402344 67.097656 27.402344 67.097656 C 27.402344 67.097656 27.398438 67.097656 27.398438 67.097656 C 26.742188 67.074219 25.632812 67.296875 24.425781 67.894531 " fill-opacity="1" fill-rule="evenodd"/><path fill="#000000" d="M 23.175781 88.535156 C 21.851562 87.136719 20.046875 82.726562 19.308594 80.699219 C 19.496094 83.496094 21.976562 89.828125 23.175781 89.828125 C 25.824219 90.417969 32.316406 86.140625 35.226562 83.925781 C 31.761719 86.046875 24.5 89.9375 23.175781 88.535156 Z M 23.175781 88.535156 " fill-opacity="1" fill-rule="nonzero"/><path fill="#000000" d="M 37.160156 72.859375 L 38.082031 75.625 L 38.726562 75.625 Z M 37.160156 72.859375 " fill-opacity="1" fill-rule="nonzero"/><path fill="#000000" d="M 26.949219 88.445312 C 24.738281 86.601562 22.347656 86.261719 21.425781 86.324219 C 21.671875 87.152344 22.679688 88.777344 23.636719 88.996094 C 24.589844 89.21875 26.148438 88.75 26.949219 88.445312 Z M 26.949219 88.445312 " fill-opacity="1" fill-rule="nonzero"/><path fill="#000000" d="M 27.867188 80.238281 L 26.855469 75.347656 L 28.878906 79.960938 C 30.71875 79.5 32.714844 79.5 33.757812 79.5 C 29.523438 80.238281 27.5 81.066406 25.566406 81.621094 Z M 27.867188 80.238281 " fill-opacity="1" fill-rule="nonzero"/><path fill="#ffffff" d="M 37.335938 75.460938 L 36.714844 84.464844 C 36.707031 84.5625 36.796875 84.636719 36.894531 84.613281 L 42.128906 83.210938 C 42.183594 83.199219 42.226562 83.148438 42.234375 83.089844 L 43.222656 74.421875 C 43.234375 74.328125 43.148438 74.246094 43.054688 74.265625 L 37.453125 75.328125 C 37.390625 75.339844 37.339844 75.394531 37.335938 75.460938 Z M 37.335938 75.460938 " fill-opacity="1" fill-rule="nonzero"/><path fill="#000000" d="M 43.027344 74.125 C 43.214844 74.089844 43.386719 74.246094 43.363281 74.4375 L 42.375 83.105469 C 42.363281 83.222656 42.277344 83.320312 42.164062 83.351562 L 36.929688 84.75 C 36.742188 84.800781 36.558594 84.648438 36.570312 84.453125 L 37.195312 75.449219 C 37.203125 75.320312 37.296875 75.210938 37.425781 75.1875 Z M 43.078125 74.40625 L 37.480469 75.46875 L 36.855469 84.472656 L 42.089844 83.074219 Z M 43.078125 74.40625 " fill-opacity="1" fill-rule="evenodd"/><path fill="#ffffff" d="M 35.78125 79.128906 C 35.351562 79.519531 34.636719 79.863281 34.328125 80.171875 L 34.859375 82.726562 C 35.300781 82.652344 36.128906 82.371094 36.652344 82.21875 C 37.238281 82.09375 38.488281 81.734375 38.785156 81.289062 C 39.15625 80.730469 39.527344 78.589844 38.785156 78.683594 C 38.191406 78.757812 37.277344 79.085938 36.894531 79.332031 L 37.023438 77.84375 C 36.101562 78.121094 36.238281 78.714844 35.78125 79.128906 Z M 35.78125 79.128906 " fill-opacity="1" fill-rule="nonzero"/><path fill="#000000" d="M 37.183594 77.648438 L 37.0625 79.078125 C 37.25 78.984375 37.476562 78.890625 37.714844 78.808594 C 38.070312 78.683594 38.457031 78.578125 38.769531 78.539062 C 38.898438 78.523438 39.015625 78.558594 39.105469 78.636719 C 39.195312 78.710938 39.25 78.816406 39.289062 78.925781 C 39.359375 79.148438 39.371094 79.449219 39.347656 79.75 C 39.324219 80.058594 39.261719 80.382812 39.183594 80.667969 C 39.109375 80.953125 39.011719 81.207031 38.90625 81.367188 C 38.8125 81.503906 38.65625 81.625 38.480469 81.726562 C 38.304688 81.832031 38.09375 81.925781 37.878906 82.007812 C 37.449219 82.171875 36.984375 82.292969 36.6875 82.355469 C 36.546875 82.398438 36.386719 82.449219 36.222656 82.5 C 36.074219 82.546875 35.921875 82.59375 35.765625 82.640625 C 35.441406 82.738281 35.113281 82.828125 34.882812 82.867188 L 34.75 82.890625 L 34.175781 80.125 L 34.230469 80.070312 C 34.390625 79.90625 34.65625 79.738281 34.914062 79.570312 C 34.921875 79.566406 34.925781 79.566406 34.933594 79.5625 C 35.207031 79.386719 35.480469 79.210938 35.683594 79.023438 C 35.785156 78.933594 35.851562 78.835938 35.914062 78.722656 C 35.941406 78.675781 35.96875 78.625 35.992188 78.570312 C 35.996094 78.5625 36 78.554688 36.003906 78.550781 C 36.035156 78.488281 36.066406 78.425781 36.105469 78.363281 C 36.179688 78.234375 36.273438 78.109375 36.414062 77.992188 C 36.554688 77.878906 36.738281 77.78125 36.980469 77.707031 Z M 36.164062 78.863281 C 36.09375 78.988281 36.007812 79.117188 35.875 79.238281 C 35.652344 79.441406 35.355469 79.628906 35.085938 79.800781 C 34.84375 79.957031 34.628906 80.09375 34.484375 80.21875 L 34.972656 82.558594 C 35.167969 82.515625 35.421875 82.445312 35.683594 82.367188 C 35.832031 82.320312 35.984375 82.273438 36.132812 82.226562 C 36.304688 82.175781 36.46875 82.121094 36.609375 82.082031 L 36.617188 82.078125 L 36.621094 82.078125 C 36.910156 82.015625 37.363281 81.898438 37.777344 81.742188 C 37.984375 81.660156 38.179688 81.574219 38.339844 81.480469 C 38.5 81.386719 38.613281 81.292969 38.667969 81.207031 C 38.746094 81.089844 38.835938 80.867188 38.910156 80.59375 C 38.984375 80.324219 39.039062 80.015625 39.0625 79.730469 C 39.085938 79.4375 39.070312 79.183594 39.015625 79.015625 C 38.988281 78.933594 38.957031 78.882812 38.921875 78.855469 C 38.894531 78.832031 38.859375 78.816406 38.804688 78.824219 C 38.519531 78.859375 38.152344 78.957031 37.808594 79.078125 C 37.460938 79.199219 37.152344 79.339844 36.972656 79.453125 L 36.730469 79.613281 L 36.863281 78.054688 C 36.75 78.105469 36.664062 78.15625 36.59375 78.214844 C 36.488281 78.300781 36.414062 78.398438 36.351562 78.507812 C 36.320312 78.5625 36.289062 78.621094 36.257812 78.679688 C 36.253906 78.6875 36.25 78.695312 36.25 78.699219 C 36.222656 78.753906 36.191406 78.808594 36.164062 78.863281 Z M 36.164062 78.863281 " fill-opacity="1" fill-rule="evenodd"/><g clip-path="url(#5e5d72a539)"><path fill="#f2545b" d="M 73.230469 53.882812 C 73.230469 54.125 73.183594 54.355469 73.09375 54.578125 C 73.003906 54.800781 72.875 55 72.707031 55.167969 C 72.539062 55.339844 72.347656 55.46875 72.128906 55.5625 C 71.910156 55.65625 71.679688 55.703125 71.445312 55.703125 C 71.207031 55.703125 70.980469 55.65625 70.761719 55.5625 C 70.542969 55.46875 70.351562 55.339844 70.183594 55.167969 C 70.015625 55 69.886719 54.800781 69.796875 54.578125 C 69.703125 54.355469 69.660156 54.125 69.660156 53.882812 C 69.660156 53.640625 69.703125 53.410156 69.796875 53.1875 C 69.886719 52.964844 70.015625 52.765625 70.183594 52.597656 C 70.351562 52.425781 70.542969 52.296875 70.761719 52.203125 C 70.980469 52.109375 71.207031 52.0625 71.445312 52.0625 C 71.679688 52.0625 71.910156 52.109375 72.128906 52.203125 C 72.347656 52.296875 72.539062 52.425781 72.707031 52.597656 C 72.875 52.765625 73.003906 52.964844 73.09375 53.1875 C 73.183594 53.410156 73.230469 53.640625 73.230469 53.882812 Z M 73.230469 53.882812 " fill-opacity="1" fill-rule="nonzero"/></g><g clip-path="url(#c81ad6faeb)"><path fill="#000000" d="M 69.496094 57.089844 C 69.304688 57.089844 69.128906 57.015625 69 56.882812 C 68.867188 56.746094 68.792969 56.566406 68.792969 56.371094 C 68.792969 56.179688 68.867188 55.996094 69 55.859375 C 69.164062 55.6875 69.40625 55.613281 69.640625 55.664062 L 70.160156 55.125 C 69.960938 54.800781 69.851562 54.433594 69.851562 54.046875 C 69.851562 53.558594 70.019531 53.101562 70.328125 52.742188 L 68.328125 51.289062 C 68.214844 51.34375 68.09375 51.371094 67.976562 51.371094 C 67.5 51.371094 67.109375 50.972656 67.109375 50.480469 C 67.109375 49.988281 67.5 49.589844 67.976562 49.589844 C 68.453125 49.589844 68.839844 49.988281 68.839844 50.480469 C 68.839844 50.523438 68.839844 50.566406 68.832031 50.609375 C 69.242188 50.929688 69.800781 51.351562 70.269531 51.703125 C 70.558594 51.921875 70.816406 52.117188 70.976562 52.242188 C 71.109375 52.179688 71.246094 52.132812 71.390625 52.101562 L 71.390625 51.472656 C 71.148438 51.328125 71.003906 51.070312 71.003906 50.773438 C 71.003906 50.316406 71.359375 49.945312 71.792969 49.945312 C 72.230469 49.945312 72.589844 50.316406 72.589844 50.773438 C 72.589844 51.070312 72.441406 51.328125 72.203125 51.472656 L 72.203125 52.109375 C 73.082031 52.3125 73.707031 53.105469 73.707031 54.046875 C 73.707031 55.140625 72.84375 56.03125 71.78125 56.03125 C 71.398438 56.03125 71.035156 55.917969 70.71875 55.703125 L 70.1875 56.25 C 70.195312 56.289062 70.199219 56.328125 70.199219 56.371094 C 70.199219 56.566406 70.125 56.746094 69.996094 56.882812 C 69.863281 57.015625 69.6875 57.089844 69.496094 57.089844 Z M 69.496094 55.960938 C 69.390625 55.960938 69.289062 56.003906 69.214844 56.078125 C 69.140625 56.15625 69.101562 56.261719 69.101562 56.371094 C 69.101562 56.480469 69.140625 56.585938 69.214844 56.664062 C 69.363281 56.816406 69.628906 56.8125 69.777344 56.664062 C 69.851562 56.585938 69.890625 56.480469 69.890625 56.371094 C 69.890625 56.328125 69.886719 56.289062 69.875 56.25 C 69.855469 56.195312 69.871094 56.132812 69.910156 56.09375 L 70.59375 55.386719 C 70.648438 55.332031 70.734375 55.324219 70.796875 55.375 C 71.082031 55.601562 71.421875 55.71875 71.78125 55.71875 C 72.671875 55.71875 73.398438 54.96875 73.398438 54.046875 C 73.398438 53.214844 72.820312 52.519531 72.027344 52.394531 C 71.953125 52.382812 71.898438 52.316406 71.898438 52.242188 L 71.898438 51.375 C 71.898438 51.3125 71.933594 51.257812 71.988281 51.230469 C 72.171875 51.152344 72.28125 50.980469 72.28125 50.773438 C 72.28125 50.488281 72.0625 50.257812 71.792969 50.257812 C 71.527344 50.257812 71.3125 50.488281 71.3125 50.773438 C 71.3125 50.980469 71.421875 51.152344 71.601562 51.230469 C 71.660156 51.257812 71.695312 51.3125 71.695312 51.375 L 71.695312 52.234375 C 71.695312 52.3125 71.640625 52.378906 71.5625 52.390625 C 71.375 52.417969 71.195312 52.476562 71.03125 52.5625 C 70.980469 52.59375 70.914062 52.585938 70.867188 52.550781 C 70.714844 52.429688 70.425781 52.210938 70.085938 51.957031 C 69.585938 51.578125 68.984375 51.125 68.566406 50.796875 C 68.519531 50.757812 68.496094 50.695312 68.511719 50.632812 C 68.527344 50.578125 68.535156 50.527344 68.535156 50.480469 C 68.535156 50.164062 68.285156 49.902344 67.976562 49.902344 C 67.667969 49.902344 67.417969 50.164062 67.417969 50.480469 C 67.417969 50.800781 67.667969 51.058594 67.976562 51.058594 C 68.074219 51.058594 68.167969 51.03125 68.261719 50.972656 C 68.3125 50.941406 68.378906 50.945312 68.429688 50.980469 L 70.652344 52.589844 C 70.714844 52.636719 70.734375 52.730469 70.695312 52.796875 C 70.683594 52.816406 70.671875 52.828125 70.65625 52.839844 C 70.335938 53.160156 70.160156 53.585938 70.160156 54.046875 C 70.160156 54.410156 70.273438 54.757812 70.484375 55.046875 C 70.527344 55.109375 70.523438 55.195312 70.46875 55.25 L 69.796875 55.949219 C 69.753906 55.992188 69.691406 56.007812 69.632812 55.984375 C 69.589844 55.96875 69.542969 55.960938 69.496094 55.960938 Z M 71.78125 55.171875 C 71.179688 55.171875 70.6875 54.664062 70.6875 54.046875 C 70.6875 53.425781 71.179688 52.921875 71.78125 52.921875 C 72.382812 52.921875 72.875 53.425781 72.875 54.046875 C 72.875 54.664062 72.382812 55.171875 71.78125 55.171875 Z M 71.78125 53.234375 C 71.347656 53.234375 70.996094 53.597656 70.996094 54.046875 C 70.996094 54.492188 71.347656 54.859375 71.78125 54.859375 C 72.214844 54.859375 72.566406 54.492188 72.566406 54.046875 C 72.566406 53.597656 72.214844 53.234375 71.78125 53.234375 Z M 71.78125 53.234375 " fill-opacity="1" fill-rule="nonzero"/></g></svg>