<svg xmlns="http://www.w3.org/2000/svg" xmlns:xlink="http://www.w3.org/1999/xlink" width="128" zoomAndPan="magnify" viewBox="0 0 96 95.999999" height="128" preserveAspectRatio="xMidYMid meet" version="1.0"><defs><clipPath id="c66cb45fbc"><path d="M 0 30.71875 L 96 30.71875 L 96 95.96875 L 0 95.96875 Z M 0 30.71875 " clip-rule="nonzero"/></clipPath><clipPath id="769714d2e5"><path d="M 0 30.71875 L 96 30.71875 L 96 39 L 0 39 Z M 0 30.71875 " clip-rule="nonzero"/></clipPath><clipPath id="c37dfa8d01"><path d="M 0 30.71875 L 96 30.71875 L 96 42 L 0 42 Z M 0 30.71875 " clip-rule="nonzero"/></clipPath><clipPath id="fbd1ed9d97"><path d="M 0 30.71875 L 11 30.71875 L 11 40 L 0 40 Z M 0 30.71875 " clip-rule="nonzero"/></clipPath><clipPath id="431c97e95d"><path d="M 6 30.71875 L 16 30.71875 L 16 40 L 6 40 Z M 6 30.71875 " clip-rule="nonzero"/></clipPath><clipPath id="214ffdc131"><path d="M 12 30.71875 L 22 30.71875 L 22 40 L 12 40 Z M 12 30.71875 " clip-rule="nonzero"/></clipPath><clipPath id="ba7dc90379"><path d="M 22 46 L 75.554688 46 L 75.554688 92.308594 L 22 92.308594 Z M 22 46 " clip-rule="nonzero"/></clipPath><clipPath id="7784081010"><path d="M 28 67 L 47 67 L 47 92.308594 L 28 92.308594 Z M 28 67 " clip-rule="nonzero"/></clipPath><clipPath id="9cd992e608"><path d="M 30 42.058594 L 40 42.058594 L 40 53 L 30 53 Z M 30 42.058594 " clip-rule="nonzero"/></clipPath><clipPath id="02a78e1355"><path d="M 30 42.058594 L 41 42.058594 L 41 53 L 30 53 Z M 30 42.058594 " clip-rule="nonzero"/></clipPath><clipPath id="0058f141a2"><path d="M 57 74 L 64 74 L 64 92.308594 L 57 92.308594 Z M 57 74 " clip-rule="nonzero"/></clipPath><clipPath id="1bc76459d5"><path d="M 62 79 L 71 79 L 71 92.308594 L 62 92.308594 Z M 62 79 " clip-rule="nonzero"/></clipPath><clipPath id="04f4b8c31c"><path d="M 58 76 L 63 76 L 63 92.308594 L 58 92.308594 Z M 58 76 " clip-rule="nonzero"/></clipPath><clipPath id="7dc89ed25d"><path d="M 62 80 L 70 80 L 70 92.308594 L 62 92.308594 Z M 62 80 " clip-rule="nonzero"/></clipPath><clipPath id="b293db8bdf"><path d="M 40 86 L 59 86 L 59 92.308594 L 40 92.308594 Z M 40 86 " clip-rule="nonzero"/></clipPath><clipPath id="a41cc0c71e"><path d="M 44.25 68.757812 L 56.25 68.757812 L 56.25 80.757812 L 44.25 80.757812 Z M 44.25 68.757812 " clip-rule="nonzero"/></clipPath></defs><g clip-path="url(#c66cb45fbc)"><path stroke-linecap="butt" transform="matrix(0.107865, 0, 0, 0.107826, -0.0539321, 30.673605)" fill-opacity="1" fill="#516f90" fill-rule="evenodd" stroke-linejoin="miter" d="M 48.013018 2.990813 L 842.987004 2.990813 C 845.956568 2.990813 848.889918 3.208177 851.787053 3.570449 C 854.684189 3.968948 857.508896 4.512356 860.22496 5.273127 C 862.941025 6.033898 865.548447 6.975806 868.011012 8.062622 C 870.473577 9.149438 872.718857 10.381163 874.81928 11.794024 C 876.919704 13.170658 878.766628 14.6922 880.43248 16.322425 C 882.062119 17.952649 883.438259 19.691555 884.560899 21.502915 C 885.719753 23.350502 886.552679 25.19809 887.132106 27.154359 C 887.711533 29.074401 888.001247 31.03067 888.001247 32.986939 L 888.001247 572.989649 C 888.001247 574.982145 887.711533 576.938414 887.132106 578.858456 C 886.552679 580.778498 885.719753 582.662313 884.560899 584.473673 C 883.438259 586.285033 882.062119 588.023939 880.43248 589.654163 C 878.766628 591.320614 876.919704 592.80593 874.81928 594.218791 C 872.718857 595.595425 870.473577 596.863377 868.011012 597.950193 C 865.548447 599.037009 862.941025 599.978916 860.22496 600.70346 C 857.508896 601.464232 854.684189 602.043867 851.787053 602.406139 C 848.889918 602.804638 845.956568 602.985774 842.987004 602.985774 L 48.013018 602.985774 C 45.043454 602.985774 42.110104 602.804638 39.212969 602.406139 C 36.315833 602.043867 33.491126 601.464232 30.775062 600.70346 C 28.058997 599.978916 25.451575 599.037009 22.98901 597.950193 C 20.526445 596.863377 18.281165 595.595425 16.180741 594.218791 C 14.080318 592.80593 12.233394 591.320614 10.567541 589.654163 C 8.937903 588.023939 7.561763 586.285033 6.439123 584.473673 C 5.280269 582.662313 4.447343 580.778498 3.867915 578.858456 C 3.288488 576.938414 2.998775 574.982145 2.998775 572.989649 L 2.998775 32.986939 C 2.998775 31.03067 3.288488 29.074401 3.867915 27.154359 C 4.447343 25.19809 5.280269 23.350502 6.439123 21.502915 C 7.561763 19.691555 8.937903 17.952649 10.567541 16.322425 C 12.233394 14.6922 14.080318 13.170658 16.180741 11.794024 C 18.281165 10.381163 20.526445 9.149438 22.98901 8.062622 C 25.451575 6.975806 28.058997 6.033898 30.775062 5.273127 C 33.491126 4.512356 36.315833 3.968948 39.212969 3.570449 C 42.110104 3.208177 45.043454 2.990813 48.013018 2.990813 Z M 48.013018 2.990813 " stroke="#333333" stroke-width="5.002" stroke-opacity="1" stroke-miterlimit="4"/></g><g clip-path="url(#769714d2e5)"><path fill="#ffffff" d="M 3.503906 30.996094 L 92.386719 30.996094 C 94.21875 30.996094 95.621094 32.398438 95.621094 34.230469 L 95.621094 38.652344 L 0.269531 38.652344 L 0.269531 34.230469 C 0.269531 32.398438 1.671875 30.996094 3.503906 30.996094 Z M 3.503906 30.996094 " fill-opacity="1" fill-rule="evenodd"/></g><g clip-path="url(#c37dfa8d01)"><path stroke-linecap="butt" transform="matrix(0.107865, 0, 0, 0.107826, -0.0539321, 30.673605)" fill="none" stroke-linejoin="miter" d="M 32.984127 2.990813 L 857.001897 2.990813 C 873.986354 2.990813 886.98725 15.99638 886.98725 32.986939 L 886.98725 73.996134 L 2.998775 73.996134 L 2.998775 32.986939 C 2.998775 15.99638 15.99967 2.990813 32.984127 2.990813 Z M 32.984127 2.990813 " stroke="#333333" stroke-width="5.002" stroke-opacity="1" stroke-miterlimit="4"/></g><path fill="#f2545b" d="M 7.171875 34.769531 C 7.171875 35 7.128906 35.21875 7.042969 35.429688 C 6.953125 35.644531 6.828125 35.828125 6.667969 35.992188 C 6.503906 36.152344 6.320312 36.277344 6.109375 36.363281 C 5.894531 36.453125 5.675781 36.496094 5.445312 36.496094 C 5.21875 36.496094 5 36.453125 4.785156 36.363281 C 4.574219 36.277344 4.386719 36.152344 4.226562 35.992188 C 4.066406 35.828125 3.941406 35.644531 3.851562 35.429688 C 3.765625 35.21875 3.722656 35 3.722656 34.769531 C 3.722656 34.542969 3.765625 34.320312 3.851562 34.109375 C 3.941406 33.898438 4.066406 33.710938 4.226562 33.550781 C 4.386719 33.390625 4.574219 33.265625 4.785156 33.175781 C 5 33.089844 5.21875 33.046875 5.445312 33.046875 C 5.675781 33.046875 5.894531 33.089844 6.109375 33.175781 C 6.320312 33.265625 6.503906 33.390625 6.667969 33.550781 C 6.828125 33.710938 6.953125 33.898438 7.042969 34.109375 C 7.128906 34.320312 7.171875 34.542969 7.171875 34.769531 Z M 7.171875 34.769531 " fill-opacity="1" fill-rule="nonzero"/><g clip-path="url(#fbd1ed9d97)"><path stroke-linecap="butt" transform="matrix(0.107865, 0, 0, 0.107826, -0.0539321, 30.673605)" fill="none" stroke-linejoin="miter" d="M 66.989256 37.986293 C 66.989256 40.123698 66.590899 42.152421 65.794187 44.10869 C 64.961261 46.101187 63.802406 47.803865 62.317624 49.325408 C 60.796628 50.810723 59.094561 51.969994 57.138995 52.766992 C 55.147214 53.600218 53.119219 53.998717 50.982582 53.998717 C 48.882159 53.998717 46.854164 53.600218 44.862383 52.766992 C 42.906817 51.969994 41.168535 50.810723 39.683753 49.325408 C 38.198971 47.803865 37.040117 46.101187 36.207191 44.10869 C 35.410478 42.152421 35.012122 40.123698 35.012122 37.986293 C 35.012122 35.885115 35.410478 33.820164 36.207191 31.863895 C 37.040117 29.907626 38.198971 28.16872 39.683753 26.683405 C 41.168535 25.19809 42.906817 24.038819 44.862383 23.205593 C 46.854164 22.408595 48.882159 22.010096 50.982582 22.010096 C 53.119219 22.010096 55.147214 22.408595 57.138995 23.205593 C 59.094561 24.038819 60.796628 25.19809 62.317624 26.683405 C 63.802406 28.16872 64.961261 29.907626 65.794187 31.863895 C 66.590899 33.820164 66.989256 35.885115 66.989256 37.986293 Z M 66.989256 37.986293 " stroke="#333333" stroke-width="5.002" stroke-opacity="1" stroke-miterlimit="4"/></g><path fill="#ffff00" d="M 12.890625 34.769531 C 12.890625 35 12.847656 35.21875 12.757812 35.429688 C 12.671875 35.644531 12.546875 35.828125 12.382812 35.992188 C 12.222656 36.152344 12.035156 36.277344 11.824219 36.363281 C 11.613281 36.453125 11.394531 36.496094 11.164062 36.496094 C 10.933594 36.496094 10.714844 36.453125 10.503906 36.363281 C 10.292969 36.277344 10.105469 36.152344 9.945312 35.992188 C 9.78125 35.828125 9.65625 35.644531 9.570312 35.429688 C 9.480469 35.21875 9.4375 35 9.4375 34.769531 C 9.4375 34.542969 9.480469 34.320312 9.570312 34.109375 C 9.65625 33.898438 9.78125 33.710938 9.945312 33.550781 C 10.105469 33.390625 10.292969 33.265625 10.503906 33.175781 C 10.714844 33.089844 10.933594 33.046875 11.164062 33.046875 C 11.394531 33.046875 11.613281 33.089844 11.824219 33.175781 C 12.035156 33.265625 12.222656 33.390625 12.382812 33.550781 C 12.546875 33.710938 12.671875 33.898438 12.757812 34.109375 C 12.847656 34.320312 12.890625 34.542969 12.890625 34.769531 Z M 12.890625 34.769531 " fill-opacity="1" fill-rule="nonzero"/><g clip-path="url(#431c97e95d)"><path stroke-linecap="butt" transform="matrix(0.107865, 0, 0, 0.107826, -0.0539321, 30.673605)" fill="none" stroke-linejoin="miter" d="M 120.006835 37.986293 C 120.006835 40.123698 119.608479 42.152421 118.775553 44.10869 C 117.978841 46.101187 116.819986 47.803865 115.29899 49.325408 C 113.814208 50.810723 112.075927 51.969994 110.120361 52.766992 C 108.164794 53.600218 106.136799 53.998717 104.000162 53.998717 C 101.863524 53.998717 99.835529 53.600218 97.879963 52.766992 C 95.924396 51.969994 94.186115 50.810723 92.701333 49.325408 C 91.180337 47.803865 90.021483 46.101187 89.224771 44.10869 C 88.391844 42.152421 87.993488 40.123698 87.993488 37.986293 C 87.993488 35.885115 88.391844 33.820164 89.224771 31.863895 C 90.021483 29.907626 91.180337 28.16872 92.701333 26.683405 C 94.186115 25.19809 95.924396 24.038819 97.879963 23.205593 C 99.835529 22.408595 101.863524 22.010096 104.000162 22.010096 C 106.136799 22.010096 108.164794 22.408595 110.120361 23.205593 C 112.075927 24.038819 113.814208 25.19809 115.29899 26.683405 C 116.819986 28.16872 117.978841 29.907626 118.775553 31.863895 C 119.608479 33.820164 120.006835 35.885115 120.006835 37.986293 Z M 120.006835 37.986293 " stroke="#333333" stroke-width="5.002" stroke-opacity="1" stroke-miterlimit="4"/></g><path fill="#00ff00" d="M 18.714844 34.769531 C 18.714844 35 18.671875 35.21875 18.582031 35.429688 C 18.496094 35.644531 18.371094 35.828125 18.210938 35.992188 C 18.046875 36.152344 17.859375 36.277344 17.648438 36.363281 C 17.4375 36.453125 17.21875 36.496094 16.988281 36.496094 C 16.761719 36.496094 16.539062 36.453125 16.328125 36.363281 C 16.117188 36.277344 15.929688 36.152344 15.769531 35.992188 C 15.605469 35.828125 15.480469 35.644531 15.394531 35.429688 C 15.308594 35.21875 15.261719 35 15.261719 34.769531 C 15.261719 34.542969 15.308594 34.320312 15.394531 34.109375 C 15.480469 33.898438 15.605469 33.710938 15.769531 33.550781 C 15.929688 33.390625 16.117188 33.265625 16.328125 33.175781 C 16.539062 33.089844 16.761719 33.046875 16.988281 33.046875 C 17.21875 33.046875 17.4375 33.089844 17.648438 33.175781 C 17.859375 33.265625 18.046875 33.390625 18.210938 33.550781 C 18.371094 33.710938 18.496094 33.898438 18.582031 34.109375 C 18.671875 34.320312 18.714844 34.542969 18.714844 34.769531 Z M 18.714844 34.769531 " fill-opacity="1" fill-rule="nonzero"/><g clip-path="url(#214ffdc131)"><path stroke-linecap="butt" transform="matrix(0.107865, 0, 0, 0.107826, -0.0539321, 30.673605)" fill="none" stroke-linejoin="miter" d="M 174.002199 37.986293 C 174.002199 40.123698 173.603843 42.152421 172.770916 44.10869 C 171.974204 46.101187 170.81535 47.803865 169.330568 49.325408 C 167.809572 50.810723 166.07129 51.969994 164.115724 52.766992 C 162.160157 53.600218 160.132162 53.998717 157.995525 53.998717 C 155.895102 53.998717 153.830893 53.600218 151.875326 52.766992 C 149.91976 51.969994 148.181478 50.810723 146.696696 49.325408 C 145.1757 47.803865 144.016846 46.101187 143.220134 44.10869 C 142.423422 42.152421 141.988851 40.123698 141.988851 37.986293 C 141.988851 35.885115 142.423422 33.820164 143.220134 31.863895 C 144.016846 29.907626 145.1757 28.16872 146.696696 26.683405 C 148.181478 25.19809 149.91976 24.038819 151.875326 23.205593 C 153.830893 22.408595 155.895102 22.010096 157.995525 22.010096 C 160.132162 22.010096 162.160157 22.408595 164.115724 23.205593 C 166.07129 24.038819 167.809572 25.19809 169.330568 26.683405 C 170.81535 28.16872 171.974204 29.907626 172.770916 31.863895 C 173.603843 33.820164 174.002199 35.885115 174.002199 37.986293 Z M 174.002199 37.986293 " stroke="#333333" stroke-width="5.002" stroke-opacity="1" stroke-miterlimit="4"/></g><path fill="#f2545b" d="M 36.101562 55.183594 C 35.867188 56.492188 33.519531 57.199219 32.375 57.390625 C 32.050781 57.515625 31.300781 57.652344 30.875 57.21875 C 30.34375 56.671875 32.683594 54.679688 34.148438 53.316406 C 35.613281 51.953125 36.390625 53.542969 36.101562 55.183594 Z M 36.101562 55.183594 " fill-opacity="1" fill-rule="nonzero"/><g clip-path="url(#ba7dc90379)"><path fill="#f2545b" d="M 22.425781 73.597656 C 20.808594 81.21875 25.65625 87.722656 29.34375 91 C 30.351562 91.894531 31.6875 92.292969 33.042969 92.292969 L 66.664062 92.292969 C 69.371094 92.292969 71.175781 89.933594 69.785156 87.621094 C 68.027344 84.699219 75.554688 76.019531 75.554688 72.179688 C 75.554688 68.339844 68.027344 65.753906 64.847656 58.742188 C 61.667969 51.734375 60.496094 48.226562 49.117188 46.390625 C 37.738281 44.554688 43.511719 53.152344 38.074219 57.574219 C 32.636719 62 24.769531 62.582031 22.425781 73.597656 Z M 22.425781 73.597656 " fill-opacity="1" fill-rule="nonzero"/></g><g clip-path="url(#7784081010)"><path fill="#ffffff" d="M 32.40625 92.125 L 40.660156 92.125 C 42.957031 91.285156 46.019531 90.277344 45.253906 88.34375 C 44.488281 86.410156 40.660156 89.015625 39.640625 87.167969 C 38.617188 85.316406 46.871094 85.066406 46.019531 82.710938 C 45.171875 80.359375 39.980469 83.382812 40.660156 81.113281 C 41.339844 78.847656 47.128906 79.6875 46.871094 77.332031 C 46.617188 74.980469 42.277344 78.847656 41.765625 76.15625 C 41.253906 73.46875 45.9375 68.675781 42.277344 67.835938 C 38.617188 66.996094 39.640625 75.734375 38.363281 76.15625 C 37.085938 76.578125 35.894531 72.039062 34.109375 74.054688 C 32.320312 76.074219 35.382812 80.609375 34.109375 82.710938 C 32.832031 84.8125 31.042969 76.996094 29.003906 80.609375 C 27.367188 83.5 30.589844 89.492188 32.40625 92.125 Z M 32.40625 92.125 " fill-opacity="1" fill-rule="nonzero"/></g><path fill="#ffffff" d="M 58.21875 51.539062 C 58.21875 51.152344 58.527344 50.84375 58.914062 50.84375 L 72.007812 50.84375 C 72.390625 50.84375 72.703125 51.152344 72.703125 51.539062 L 72.703125 58.660156 C 72.703125 59.042969 72.390625 59.355469 72.007812 59.355469 L 58.914062 59.355469 C 58.527344 59.355469 58.21875 59.042969 58.21875 58.660156 Z M 58.21875 51.539062 " fill-opacity="1" fill-rule="nonzero"/><path fill="#000000" d="M 58.078125 51.539062 C 58.078125 51.078125 58.453125 50.703125 58.914062 50.703125 L 72.007812 50.703125 C 72.46875 50.703125 72.839844 51.078125 72.839844 51.539062 L 72.839844 58.660156 C 72.839844 59.121094 72.46875 59.496094 72.007812 59.496094 L 58.914062 59.496094 C 58.453125 59.496094 58.078125 59.121094 58.078125 58.660156 Z M 58.914062 50.980469 C 58.605469 50.980469 58.355469 51.230469 58.355469 51.539062 L 58.355469 58.660156 C 58.355469 58.964844 58.605469 59.214844 58.914062 59.214844 L 72.007812 59.214844 C 72.316406 59.214844 72.5625 58.964844 72.5625 58.660156 L 72.5625 51.539062 C 72.5625 51.230469 72.316406 50.980469 72.007812 50.980469 Z M 58.914062 50.980469 " fill-opacity="1" fill-rule="evenodd"/><path fill="#000000" d="M 68.328125 54.761719 L 64.8125 57.753906 L 64.8125 58.609375 C 64.8125 58.992188 65.121094 59.304688 65.503906 59.304688 L 72.007812 59.304688 C 72.390625 59.304688 72.703125 58.992188 72.703125 58.609375 L 72.703125 57.425781 L 69.203125 54.738281 C 68.941406 54.539062 68.578125 54.550781 68.328125 54.761719 Z M 68.328125 54.761719 " fill-opacity="1" fill-rule="nonzero"/><path fill="#f2545b" d="M 66.492188 53.488281 C 66.492188 54.011719 66.074219 54.433594 65.550781 54.433594 C 65.03125 54.433594 64.609375 54.011719 64.609375 53.488281 C 64.609375 52.96875 65.03125 52.546875 65.550781 52.546875 C 66.074219 52.546875 66.492188 52.96875 66.492188 53.488281 Z M 66.492188 53.488281 " fill-opacity="1" fill-rule="nonzero"/><path fill="#ffffff" d="M 61.785156 54.757812 L 58.21875 57.753906 L 58.21875 58.660156 C 58.21875 59.042969 58.527344 59.355469 58.914062 59.355469 L 68.605469 59.355469 L 62.65625 54.742188 C 62.398438 54.539062 62.035156 54.546875 61.785156 54.757812 Z M 61.785156 54.757812 " fill-opacity="1" fill-rule="nonzero"/><path fill="#000000" d="M 62.570312 54.851562 C 62.363281 54.691406 62.074219 54.695312 61.875 54.863281 L 58.355469 57.816406 L 58.355469 58.660156 C 58.355469 58.964844 58.605469 59.214844 58.914062 59.214844 L 68.199219 59.214844 Z M 61.695312 54.652344 C 61.996094 54.398438 62.429688 54.390625 62.742188 54.628906 L 69.011719 59.496094 L 58.914062 59.496094 C 58.453125 59.496094 58.078125 59.121094 58.078125 58.660156 L 58.078125 57.6875 Z M 61.695312 54.652344 " fill-opacity="1" fill-rule="evenodd"/><path fill="#000000" d="M 36.480469 53.789062 C 36.480469 54.417969 35.972656 54.929688 35.339844 54.929688 C 34.710938 54.929688 34.203125 54.417969 34.203125 53.789062 C 34.203125 53.15625 34.710938 52.644531 35.339844 52.644531 C 35.972656 52.644531 36.480469 53.15625 36.480469 53.789062 Z M 36.480469 53.789062 " fill-opacity="1" fill-rule="nonzero"/><g clip-path="url(#9cd992e608)"><path fill="#ffffff" d="M 39.953125 47.183594 C 39.953125 49.925781 37.886719 52.148438 35.339844 52.148438 C 32.796875 52.148438 30.730469 49.925781 30.730469 47.183594 C 30.730469 44.445312 32.796875 42.21875 35.339844 42.21875 C 37.886719 42.21875 39.953125 44.445312 39.953125 47.183594 Z M 39.953125 47.183594 " fill-opacity="1" fill-rule="nonzero"/></g><g clip-path="url(#02a78e1355)"><path fill="#000000" d="M 35.339844 42.359375 C 32.882812 42.359375 30.871094 44.511719 30.871094 47.183594 C 30.871094 49.859375 32.882812 52.007812 35.339844 52.007812 C 37.800781 52.007812 39.8125 49.859375 39.8125 47.183594 C 39.8125 44.511719 37.800781 42.359375 35.339844 42.359375 Z M 30.589844 47.183594 C 30.589844 44.375 32.707031 42.082031 35.339844 42.082031 C 37.976562 42.082031 40.09375 44.375 40.09375 47.183594 C 40.09375 49.996094 37.976562 52.289062 35.339844 52.289062 C 32.707031 52.289062 30.589844 49.996094 30.589844 47.183594 Z M 30.589844 47.183594 " fill-opacity="1" fill-rule="evenodd"/></g><path fill="#000000" d="M 34.207031 54.234375 L 36.476562 54.234375 C 36.863281 54.234375 37.175781 53.921875 37.175781 53.535156 L 37.175781 51.703125 L 33.507812 51.703125 L 33.507812 53.535156 C 33.507812 53.921875 33.820312 54.234375 34.207031 54.234375 Z M 34.207031 54.234375 " fill-opacity="1" fill-rule="nonzero"/><path fill="#f2545b" d="M 33.964844 46.378906 C 34.042969 46.328125 34.140625 46.300781 34.25 46.300781 C 34.464844 46.300781 34.613281 46.378906 34.699219 46.523438 C 34.777344 46.652344 34.789062 46.808594 34.789062 46.9375 C 34.789062 47.152344 34.695312 47.355469 34.535156 47.523438 C 34.738281 47.59375 35.015625 47.640625 35.390625 47.640625 C 35.765625 47.640625 36.042969 47.59375 36.246094 47.523438 C 36.085938 47.355469 35.996094 47.152344 35.996094 46.9375 C 35.996094 46.808594 36.007812 46.652344 36.082031 46.523438 C 36.167969 46.378906 36.320312 46.300781 36.53125 46.300781 C 36.644531 46.300781 36.738281 46.328125 36.816406 46.378906 C 36.894531 46.429688 36.949219 46.5 36.984375 46.566406 C 37.054688 46.703125 37.066406 46.851562 37.066406 46.9375 C 37.066406 47.113281 37 47.351562 36.773438 47.546875 C 36.890625 47.59375 37.027344 47.628906 37.1875 47.640625 C 37.410156 47.660156 37.617188 47.589844 37.789062 47.492188 C 37.964844 47.394531 38.09375 47.273438 38.160156 47.195312 L 38.375 47.375 C 38.289062 47.476562 38.132812 47.621094 37.925781 47.738281 C 37.722656 47.855469 37.457031 47.941406 37.164062 47.921875 C 36.910156 47.902344 36.683594 47.828125 36.5 47.722656 C 36.242188 47.84375 35.882812 47.921875 35.390625 47.921875 C 34.898438 47.921875 34.539062 47.84375 34.28125 47.722656 C 34.097656 47.828125 33.871094 47.902344 33.617188 47.921875 C 33.324219 47.941406 33.0625 47.855469 32.855469 47.738281 C 32.648438 47.621094 32.492188 47.476562 32.40625 47.375 L 32.625 47.195312 C 32.6875 47.273438 32.816406 47.394531 32.992188 47.492188 C 33.164062 47.589844 33.371094 47.660156 33.59375 47.640625 C 33.753906 47.628906 33.894531 47.59375 34.011719 47.546875 C 33.785156 47.351562 33.714844 47.113281 33.714844 46.9375 C 33.714844 46.851562 33.726562 46.703125 33.796875 46.566406 C 33.835938 46.5 33.886719 46.429688 33.964844 46.378906 Z M 34.269531 47.390625 C 34.425781 47.257812 34.507812 47.089844 34.507812 46.9375 C 34.507812 46.816406 34.492188 46.726562 34.460938 46.667969 C 34.433594 46.625 34.386719 46.582031 34.25 46.582031 C 34.1875 46.582031 34.148438 46.597656 34.117188 46.613281 C 34.089844 46.632812 34.066406 46.660156 34.046875 46.699219 C 34.003906 46.773438 33.996094 46.875 33.996094 46.9375 C 33.996094 47.046875 34.039062 47.214844 34.226562 47.359375 C 34.238281 47.371094 34.253906 47.378906 34.269531 47.390625 Z M 36.515625 47.390625 C 36.53125 47.378906 36.542969 47.371094 36.558594 47.359375 C 36.742188 47.214844 36.789062 47.046875 36.789062 46.9375 C 36.789062 46.875 36.777344 46.773438 36.738281 46.699219 C 36.71875 46.660156 36.691406 46.632812 36.664062 46.613281 C 36.636719 46.597656 36.59375 46.582031 36.53125 46.582031 C 36.398438 46.582031 36.347656 46.625 36.324219 46.667969 C 36.289062 46.726562 36.273438 46.816406 36.273438 46.9375 C 36.273438 47.089844 36.355469 47.257812 36.515625 47.390625 Z M 36.515625 47.390625 " fill-opacity="1" fill-rule="evenodd"/><g clip-path="url(#0058f141a2)"><path fill="#ffffff" d="M 57.601562 74.859375 C 57.265625 83.070312 59.84375 89.226562 61.417969 91.667969 C 61.5625 91.890625 61.808594 92.015625 62.074219 92.015625 L 62.585938 92.015625 C 63.039062 92.015625 63.40625 91.640625 63.398438 91.191406 C 63.222656 80.1875 60.464844 75.636719 58.515625 74.308594 C 58.101562 74.023438 57.621094 74.359375 57.601562 74.859375 Z M 57.601562 74.859375 " fill-opacity="1" fill-rule="nonzero"/><path fill="#000000" d="M 58 74.433594 C 57.875 74.511719 57.777344 74.667969 57.769531 74.867188 C 57.433594 83.042969 60.003906 89.164062 61.5625 91.574219 C 61.671875 91.746094 61.863281 91.84375 62.074219 91.84375 L 62.585938 91.84375 C 62.945312 91.84375 63.234375 91.550781 63.230469 91.195312 C 63.140625 85.703125 62.410156 81.835938 61.460938 79.175781 C 60.511719 76.515625 59.355469 75.082031 58.421875 74.445312 C 58.269531 74.34375 58.121094 74.355469 58 74.433594 Z M 57.816406 74.148438 C 58.046875 74 58.34375 73.984375 58.613281 74.167969 C 59.625 74.859375 60.820312 76.367188 61.78125 79.0625 C 62.746094 81.765625 63.480469 85.671875 63.566406 91.1875 C 63.578125 91.734375 63.132812 92.183594 62.585938 92.183594 L 62.074219 92.183594 C 61.757812 92.183594 61.453125 92.035156 61.277344 91.757812 C 59.683594 89.292969 57.09375 83.101562 57.429688 74.855469 C 57.441406 74.550781 57.59375 74.289062 57.816406 74.148438 Z M 57.816406 74.148438 " fill-opacity="1" fill-rule="evenodd"/></g><g clip-path="url(#1bc76459d5)"><path fill="#000000" d="M 69.347656 79.207031 C 64.9375 82.1875 62.871094 87.855469 62.226562 91.167969 C 62.128906 91.652344 62.511719 92.085938 63.007812 92.085938 L 63.664062 92.085938 C 63.859375 92.085938 64.050781 92.015625 64.195312 91.882812 C 67.980469 88.472656 69.777344 83.167969 70.410156 79.921875 C 70.53125 79.289062 69.882812 78.84375 69.347656 79.207031 Z M 69.347656 79.207031 " fill-opacity="1" fill-rule="nonzero"/></g><g clip-path="url(#04f4b8c31c)"><path fill="#000000" d="M 59.007812 76.085938 C 59.464844 77.476562 59.878906 78.839844 60.25 80.148438 C 60.550781 81.210938 60.824219 82.238281 61.074219 83.21875 L 61.566406 82.019531 L 61.878906 82.148438 L 61.210938 83.777344 C 61.648438 85.539062 61.996094 87.132812 62.261719 88.484375 C 62.570312 90.046875 62.773438 91.28125 62.875 92.0625 L 62.535156 92.105469 C 62.4375 91.347656 62.242188 90.148438 61.945312 88.628906 L 60.449219 87.828125 L 60.609375 87.53125 L 61.859375 88.199219 C 61.601562 86.917969 61.273438 85.429688 60.871094 83.804688 C 60.59375 82.699219 60.289062 81.527344 59.941406 80.3125 L 58.414062 79.507812 L 58.574219 79.207031 L 59.816406 79.863281 C 59.472656 78.671875 59.097656 77.445312 58.683594 76.191406 Z M 59.007812 76.085938 " fill-opacity="1" fill-rule="evenodd"/></g><g clip-path="url(#7dc89ed25d)"><path fill="#ffffff" d="M 68.066406 82.847656 C 68.523438 82.105469 68.964844 81.449219 69.367188 80.929688 L 69.097656 80.722656 C 68.621094 81.34375 68.089844 82.148438 67.546875 83.046875 C 67.035156 83.886719 66.507812 84.816406 65.992188 85.757812 L 65.890625 84.378906 L 65.554688 84.40625 L 65.695312 86.3125 C 65.09375 87.433594 64.519531 88.554688 64.015625 89.5625 C 63.542969 90.511719 63.136719 91.363281 62.832031 92.011719 L 63.140625 92.15625 C 63.4375 91.519531 63.832031 90.695312 64.292969 89.769531 L 65.785156 89.164062 L 65.660156 88.851562 L 64.519531 89.3125 C 64.980469 88.402344 65.488281 87.414062 66.015625 86.429688 C 66.601562 85.335938 67.210938 84.25 67.800781 83.277344 L 68.929688 82.945312 L 68.832031 82.621094 Z M 68.066406 82.847656 " fill-opacity="1" fill-rule="evenodd"/></g><path fill="#f2545b" d="M 61.945312 44.058594 L 61.191406 45.058594 C 61.144531 45.117188 61.070312 45.148438 60.996094 45.132812 L 60.0625 44.953125 C 59.859375 44.914062 59.738281 45.175781 59.894531 45.3125 L 60.628906 45.960938 C 60.683594 46.007812 60.707031 46.082031 60.695312 46.152344 L 60.511719 47.226562 C 60.476562 47.425781 60.714844 47.550781 60.851562 47.402344 L 61.605469 46.578125 C 61.652344 46.53125 61.714844 46.507812 61.78125 46.515625 L 62.652344 46.640625 C 62.847656 46.667969 62.960938 46.414062 62.8125 46.28125 L 62.160156 45.695312 C 62.109375 45.648438 62.085938 45.578125 62.097656 45.507812 L 62.300781 44.21875 C 62.332031 44.007812 62.074219 43.890625 61.945312 44.058594 Z M 61.945312 44.058594 " fill-opacity="1" fill-rule="nonzero"/><path fill="#f2545b" d="M 42.144531 43.140625 L 41.777344 43.621094 C 41.757812 43.652344 41.722656 43.664062 41.683594 43.660156 L 41.234375 43.570312 C 41.140625 43.554688 41.082031 43.679688 41.15625 43.746094 L 41.507812 44.058594 C 41.535156 44.082031 41.546875 44.117188 41.539062 44.152344 L 41.453125 44.667969 C 41.433594 44.765625 41.550781 44.828125 41.617188 44.753906 L 41.980469 44.355469 C 42 44.332031 42.03125 44.324219 42.0625 44.328125 L 42.484375 44.386719 C 42.578125 44.398438 42.632812 44.277344 42.558594 44.210938 L 42.246094 43.929688 C 42.222656 43.90625 42.210938 43.875 42.214844 43.839844 L 42.3125 43.21875 C 42.328125 43.117188 42.203125 43.058594 42.144531 43.140625 Z M 42.144531 43.140625 " fill-opacity="1" fill-rule="nonzero"/><path fill="#f2545b" d="M 26.535156 57.257812 L 25.660156 57.746094 C 25.605469 57.777344 25.539062 57.773438 25.488281 57.742188 L 24.84375 57.3125 C 24.707031 57.222656 24.535156 57.375 24.609375 57.523438 L 24.957031 58.230469 C 24.984375 58.28125 24.980469 58.34375 24.949219 58.390625 L 24.476562 59.117188 C 24.390625 59.253906 24.53125 59.417969 24.679688 59.355469 L 25.5 58.992188 C 25.546875 58.96875 25.605469 58.972656 25.648438 59 L 26.265625 59.363281 C 26.40625 59.445312 26.566406 59.296875 26.496094 59.152344 L 26.191406 58.519531 C 26.164062 58.46875 26.167969 58.410156 26.199219 58.363281 L 26.753906 57.484375 C 26.84375 57.34375 26.683594 57.175781 26.535156 57.257812 Z M 26.535156 57.257812 " fill-opacity="1" fill-rule="nonzero"/><g clip-path="url(#b293db8bdf)"><path fill="#000000" d="M 57.628906 86.472656 L 58.300781 92.242188 L 40.003906 92.242188 L 40.589844 86.472656 Z M 57.628906 86.472656 " fill-opacity="1" fill-rule="nonzero"/></g><path fill="#ffffff" d="M 46.972656 60.855469 C 46.753906 60.625 46.132812 59.804688 46.167969 58.378906 C 45.992188 58.355469 45.664062 58.121094 45.765625 57.394531 C 45.871094 56.664062 46.28125 56.59375 46.476562 56.648438 C 46.984375 55.0625 48.0625 54.082031 49.761719 54.324219 C 51.53125 54.570312 52.476562 55.441406 52.460938 57.488281 C 52.648438 57.542969 53 57.800781 52.914062 58.398438 C 52.828125 58.992188 52.445312 59.203125 52.265625 59.234375 C 52.050781 60.230469 51.683594 60.90625 51.261719 61.238281 L 51.503906 63.640625 L 50.160156 65.3125 L 47.054688 64.980469 L 46.96875 63.308594 L 47.21875 61.160156 C 47.152344 61.085938 47.097656 61.015625 47.046875 60.953125 C 47.019531 60.917969 46.996094 60.886719 46.972656 60.855469 Z M 46.972656 60.855469 " fill-opacity="1" fill-rule="evenodd"/><path fill="#000000" d="M 47.570312 54.667969 C 48.15625 54.222656 48.894531 54.03125 49.785156 54.15625 C 50.691406 54.28125 51.414062 54.570312 51.90625 55.117188 C 52.382812 55.644531 52.621094 56.386719 52.632812 57.375 C 52.878906 57.507812 53.164062 57.832031 53.082031 58.421875 C 53 58.996094 52.664062 59.277344 52.410156 59.371094 C 52.199219 60.277344 51.859375 60.941406 51.4375 61.3125 L 51.679688 63.691406 L 50.234375 65.492188 L 46.890625 65.132812 L 46.800781 63.300781 L 47.042969 61.214844 C 46.992188 61.160156 46.949219 61.105469 46.914062 61.054688 C 46.886719 61.023438 46.867188 60.992188 46.84375 60.96875 C 46.605469 60.714844 46 59.894531 45.996094 58.5 C 45.898438 58.453125 45.792969 58.367188 45.71875 58.238281 C 45.601562 58.042969 45.542969 57.761719 45.597656 57.371094 C 45.652344 56.976562 45.796875 56.726562 45.988281 56.589844 C 46.109375 56.5 46.242188 56.464844 46.359375 56.464844 C 46.621094 55.707031 47.019531 55.082031 47.570312 54.667969 Z M 47.773438 54.9375 C 47.265625 55.320312 46.882812 55.929688 46.636719 56.699219 L 46.585938 56.855469 L 46.429688 56.8125 C 46.375 56.796875 46.28125 56.796875 46.1875 56.863281 C 46.09375 56.929688 45.980469 57.082031 45.933594 57.417969 C 45.886719 57.753906 45.941406 57.953125 46.007812 58.0625 C 46.074219 58.175781 46.15625 58.207031 46.191406 58.210938 L 46.34375 58.230469 L 46.339844 58.382812 C 46.304688 59.753906 46.902344 60.535156 47.09375 60.742188 L 47.101562 60.746094 L 47.105469 60.75 C 47.128906 60.78125 47.15625 60.8125 47.179688 60.847656 C 47.230469 60.914062 47.285156 60.980469 47.34375 61.050781 L 47.394531 61.105469 L 47.140625 63.3125 L 47.214844 64.828125 L 50.085938 65.136719 L 51.328125 63.589844 L 51.082031 61.164062 L 51.15625 61.109375 C 51.535156 60.808594 51.890625 60.179688 52.101562 59.199219 L 52.125 59.085938 L 52.238281 59.066406 C 52.347656 59.050781 52.671875 58.894531 52.746094 58.371094 C 52.816406 57.867188 52.527344 57.683594 52.414062 57.652344 L 52.292969 57.613281 L 52.292969 57.488281 C 52.300781 56.488281 52.074219 55.804688 51.65625 55.34375 C 51.238281 54.878906 50.601562 54.609375 49.738281 54.488281 C 48.925781 54.375 48.28125 54.554688 47.773438 54.9375 Z M 47.773438 54.9375 " fill-opacity="1" fill-rule="evenodd"/><path fill="#000000" d="M 46.164062 55.167969 C 45.921875 55.945312 45.898438 57.074219 46.171875 57.535156 L 47.035156 56.21875 C 47.214844 56.378906 48.148438 56.546875 48.507812 56.59375 C 49.914062 56.726562 51.039062 56.078125 51.425781 55.738281 C 51.40625 56.34375 52.085938 58.054688 52.34375 58.824219 C 52.882812 58.222656 53.417969 56.523438 53.25 54.8125 C 53.085938 53.101562 52 52.863281 51.3125 52.9375 C 49.683594 51.269531 47.582031 51.144531 46.386719 52.414062 C 45.429688 53.425781 45.730469 54.65625 46.164062 55.167969 Z M 46.164062 55.167969 " fill-opacity="1" fill-rule="nonzero"/><path fill="#ffffff" d="M 36.691406 61.335938 C 36.507812 61.585938 36.449219 62.203125 36.445312 62.480469 L 35.597656 63.296875 L 34.316406 62.589844 C 34.289062 61.972656 33.46875 61.128906 33.695312 60.335938 C 33.878906 59.699219 34.902344 59.214844 35.285156 59.296875 L 35.238281 57.570312 C 35.230469 57.328125 35.414062 57.125 35.65625 57.105469 C 35.910156 57.085938 36.128906 57.277344 36.144531 57.53125 L 36.285156 59.929688 C 36.246094 59.980469 36.363281 60.089844 36.871094 59.789062 C 37.507812 59.417969 37.367188 59.738281 37.46875 59.929688 C 37.566406 60.121094 36.921875 61.027344 36.691406 61.335938 Z M 36.691406 61.335938 " fill-opacity="1" fill-rule="nonzero"/><path fill="#000000" d="M 35.644531 56.9375 C 35.992188 56.910156 36.292969 57.175781 36.3125 57.519531 L 36.449219 59.804688 C 36.519531 59.785156 36.628906 59.738281 36.785156 59.644531 C 36.949219 59.550781 37.078125 59.488281 37.179688 59.464844 C 37.285156 59.4375 37.402344 59.441406 37.492188 59.53125 C 37.53125 59.570312 37.550781 59.613281 37.5625 59.648438 C 37.574219 59.679688 37.582031 59.714844 37.589844 59.742188 C 37.589844 59.746094 37.589844 59.746094 37.589844 59.75 C 37.601562 59.804688 37.605469 59.832031 37.617188 59.855469 C 37.65625 59.929688 37.648438 60.011719 37.636719 60.066406 C 37.625 60.125 37.601562 60.191406 37.574219 60.253906 C 37.519531 60.382812 37.4375 60.53125 37.347656 60.679688 C 37.164062 60.972656 36.941406 61.28125 36.828125 61.4375 C 36.761719 61.527344 36.707031 61.707031 36.667969 61.925781 C 36.632812 62.136719 36.617188 62.351562 36.617188 62.480469 L 36.613281 62.550781 L 35.628906 63.503906 L 34.148438 62.695312 L 34.144531 62.597656 C 34.140625 62.476562 34.09375 62.332031 34.019531 62.15625 C 33.976562 62.050781 33.921875 61.945312 33.871094 61.835938 C 33.832031 61.761719 33.796875 61.683594 33.757812 61.601562 C 33.578125 61.214844 33.402344 60.753906 33.535156 60.289062 C 33.640625 59.910156 33.988281 59.601562 34.332031 59.402344 C 34.503906 59.300781 34.6875 59.222656 34.855469 59.171875 C 34.941406 59.148438 35.027344 59.128906 35.113281 59.121094 L 35.066406 57.574219 C 35.058594 57.242188 35.3125 56.960938 35.644531 56.9375 Z M 36.355469 59.824219 C 36.355469 59.824219 36.355469 59.824219 36.359375 59.824219 C 36.355469 59.824219 36.355469 59.824219 36.355469 59.824219 Z M 35.972656 57.539062 C 35.964844 57.382812 35.828125 57.261719 35.667969 57.273438 C 35.519531 57.285156 35.402344 57.414062 35.40625 57.566406 L 35.460938 59.507812 L 35.25 59.460938 C 35.195312 59.449219 35.09375 59.457031 34.949219 59.5 C 34.8125 59.539062 34.65625 59.605469 34.503906 59.695312 C 34.1875 59.875 33.933594 60.128906 33.859375 60.382812 C 33.765625 60.714844 33.886719 61.070312 34.066406 61.457031 C 34.097656 61.527344 34.132812 61.601562 34.167969 61.675781 C 34.226562 61.792969 34.285156 61.914062 34.332031 62.023438 C 34.398438 62.175781 34.453125 62.332031 34.476562 62.488281 L 35.570312 63.089844 L 36.277344 62.40625 C 36.285156 62.261719 36.300781 62.066406 36.332031 61.871094 C 36.371094 61.648438 36.433594 61.398438 36.554688 61.238281 C 36.667969 61.082031 36.882812 60.785156 37.058594 60.5 C 37.144531 60.359375 37.21875 60.226562 37.261719 60.121094 C 37.285156 60.066406 37.300781 60.027344 37.304688 60 C 37.304688 59.996094 37.304688 59.992188 37.308594 59.988281 C 37.28125 59.929688 37.265625 59.863281 37.257812 59.824219 C 37.257812 59.820312 37.257812 59.8125 37.257812 59.808594 C 37.253906 59.804688 37.253906 59.800781 37.253906 59.796875 C 37.199219 59.808594 37.105469 59.851562 36.957031 59.9375 C 36.699219 60.089844 36.511719 60.152344 36.382812 60.160156 C 36.320312 60.164062 36.238281 60.15625 36.171875 60.09375 C 36.136719 60.0625 36.113281 60.015625 36.109375 59.960938 C 36.109375 59.941406 36.109375 59.921875 36.113281 59.90625 Z M 35.972656 57.539062 " fill-opacity="1" fill-rule="evenodd"/><path fill="#ffffff" d="M 56.851562 88.242188 C 57.285156 87.828125 57.492188 87.464844 57.539062 87.335938 C 58.078125 87.667969 59.328125 87.898438 59.714844 88.480469 C 60.199219 89.207031 59.203125 91.375 58.824219 91.578125 C 58.449219 91.777344 57.023438 91.421875 56.664062 91.09375 C 56.371094 90.832031 56.628906 90.113281 56.804688 89.828125 C 56.613281 89.679688 56.074219 89.609375 56.105469 89.25 C 56.144531 88.800781 56.304688 88.753906 56.851562 88.242188 Z M 56.851562 88.242188 " fill-opacity="1" fill-rule="nonzero"/><path fill="#000000" d="M 57.453125 87.082031 L 57.378906 87.277344 C 57.34375 87.375 57.15625 87.71875 56.734375 88.117188 C 56.632812 88.214844 56.542969 88.292969 56.46875 88.363281 C 56.441406 88.382812 56.417969 88.40625 56.394531 88.425781 C 56.300781 88.511719 56.222656 88.585938 56.160156 88.660156 C 56.015625 88.824219 55.957031 88.984375 55.933594 89.238281 C 55.910156 89.527344 56.128906 89.683594 56.292969 89.769531 C 56.363281 89.804688 56.4375 89.835938 56.503906 89.863281 C 56.515625 89.871094 56.53125 89.875 56.542969 89.882812 C 56.554688 89.886719 56.566406 89.890625 56.574219 89.894531 C 56.503906 90.046875 56.429688 90.242188 56.390625 90.433594 C 56.363281 90.570312 56.351562 90.710938 56.367188 90.847656 C 56.386719 90.980469 56.4375 91.117188 56.546875 91.21875 C 56.660156 91.320312 56.839844 91.414062 57.035156 91.492188 C 57.234375 91.570312 57.46875 91.644531 57.699219 91.699219 C 57.929688 91.753906 58.164062 91.789062 58.371094 91.800781 C 58.566406 91.8125 58.765625 91.800781 58.90625 91.726562 C 58.984375 91.683594 59.0625 91.605469 59.125 91.519531 C 59.195312 91.433594 59.265625 91.320312 59.339844 91.195312 C 59.484375 90.941406 59.632812 90.621094 59.753906 90.28125 C 59.875 89.945312 59.96875 89.585938 60.003906 89.257812 C 60.035156 88.9375 60.011719 88.617188 59.859375 88.386719 C 59.742188 88.210938 59.566406 88.070312 59.375 87.957031 C 59.183594 87.839844 58.964844 87.742188 58.75 87.65625 C 58.621094 87.605469 58.492188 87.554688 58.363281 87.507812 C 58.277344 87.476562 58.191406 87.445312 58.113281 87.414062 C 57.917969 87.335938 57.75 87.265625 57.628906 87.191406 Z M 59.199219 88.246094 C 59.371094 88.347656 59.496094 88.457031 59.574219 88.574219 C 59.664062 88.703125 59.695312 88.925781 59.664062 89.226562 C 59.636719 89.515625 59.550781 89.847656 59.433594 90.167969 C 59.320312 90.488281 59.179688 90.792969 59.042969 91.027344 C 58.976562 91.144531 58.914062 91.242188 58.859375 91.3125 C 58.796875 91.390625 58.757812 91.421875 58.746094 91.429688 C 58.695312 91.453125 58.578125 91.472656 58.386719 91.464844 C 58.207031 91.453125 57.996094 91.421875 57.777344 91.367188 C 57.558594 91.316406 57.34375 91.25 57.164062 91.179688 C 56.976562 91.101562 56.84375 91.027344 56.777344 90.96875 C 56.742188 90.9375 56.714844 90.886719 56.707031 90.804688 C 56.695312 90.71875 56.703125 90.613281 56.726562 90.5 C 56.769531 90.273438 56.871094 90.042969 56.949219 89.914062 L 57.027344 89.785156 L 56.910156 89.691406 C 56.839844 89.640625 56.75 89.601562 56.675781 89.570312 C 56.660156 89.5625 56.644531 89.554688 56.628906 89.550781 C 56.566406 89.523438 56.507812 89.496094 56.449219 89.46875 C 56.304688 89.390625 56.265625 89.332031 56.273438 89.265625 C 56.289062 89.070312 56.332031 88.980469 56.417969 88.878906 C 56.464844 88.824219 56.53125 88.761719 56.625 88.675781 C 56.644531 88.65625 56.667969 88.636719 56.691406 88.613281 C 56.769531 88.542969 56.863281 88.460938 56.964844 88.363281 C 57.296875 88.054688 57.503906 87.765625 57.613281 87.566406 C 57.730469 87.625 57.859375 87.679688 57.992188 87.730469 C 58.078125 87.761719 58.164062 87.796875 58.253906 87.828125 C 58.375 87.875 58.496094 87.917969 58.621094 87.96875 C 58.832031 88.054688 59.03125 88.144531 59.199219 88.246094 Z M 59.199219 88.246094 " fill-opacity="1" fill-rule="evenodd"/><path fill="#ffffff" d="M 42.949219 63.539062 C 42.242188 63.820312 41.546875 64.175781 40.941406 64.617188 C 39.71875 65.570312 39.074219 66.300781 38.621094 66.816406 C 38.347656 67.125 38.144531 67.355469 37.929688 67.507812 C 37.660156 67.699219 37.675781 66.679688 37.695312 65.480469 C 37.71875 64.089844 37.746094 62.457031 37.335938 62.183594 C 36.570312 61.675781 33.09375 61.867188 33.09375 62.859375 C 33.09375 63.207031 32.855469 64.503906 32.558594 66.117188 C 32.007812 69.132812 31.253906 73.25 31.480469 74.273438 C 31.988281 76.554688 34.535156 78.582031 37.929688 76.976562 C 38.492188 76.59375 39.007812 76.210938 39.472656 75.835938 C 39.316406 80.949219 39.460938 85.976562 39.753906 86.554688 C 40.589844 88.226562 46.046875 88.226562 49.570312 88.226562 C 52.382812 88.226562 55.152344 88.074219 56.839844 87.625 C 57.433594 88.3125 59.664062 89.054688 60.386719 88.980469 C 61.226562 88.898438 64.5 80.199219 64.585938 78.191406 C 64.667969 76.1875 62.066406 67.320312 57.703125 64.644531 C 57.695312 64.640625 57.6875 64.636719 57.683594 64.632812 L 57.671875 64.5625 C 55.5625 63.054688 53.28125 62.605469 51.921875 62.636719 C 51.921875 63.195312 51.402344 64.308594 49.320312 64.308594 C 47.238281 64.308594 46.773438 63.195312 46.71875 62.636719 C 46 62.65625 44.503906 62.878906 42.949219 63.539062 Z M 42.949219 63.539062 " fill-opacity="1" fill-rule="evenodd"/><path fill="#000000" d="M 33.71875 62.417969 C 33.386719 62.566406 33.261719 62.722656 33.261719 62.859375 C 33.261719 63.050781 33.199219 63.476562 33.105469 64.042969 C 33.007812 64.613281 32.875 65.339844 32.726562 66.144531 L 32.726562 66.148438 C 32.449219 67.65625 32.125 69.4375 31.894531 70.96875 C 31.78125 71.734375 31.691406 72.433594 31.644531 73.003906 C 31.597656 73.582031 31.59375 74.007812 31.644531 74.234375 C 31.890625 75.332031 32.625 76.367188 33.703125 76.933594 C 34.773438 77.496094 36.195312 77.605469 37.84375 76.832031 C 38.402344 76.449219 38.90625 76.074219 39.367188 75.703125 L 39.65625 75.472656 L 39.644531 75.839844 C 39.5625 78.394531 39.5625 80.925781 39.613281 82.890625 C 39.640625 83.875 39.679688 84.714844 39.734375 85.34375 C 39.757812 85.65625 39.789062 85.914062 39.816406 86.113281 C 39.851562 86.316406 39.882812 86.433594 39.902344 86.480469 C 40.082031 86.835938 40.523438 87.132812 41.199219 87.363281 C 41.867188 87.59375 42.722656 87.746094 43.671875 87.851562 C 45.570312 88.058594 47.808594 88.058594 49.570312 88.058594 C 52.382812 88.058594 55.132812 87.902344 56.796875 87.464844 L 56.898438 87.4375 L 56.96875 87.515625 C 57.097656 87.664062 57.328125 87.828125 57.625 87.988281 C 57.917969 88.148438 58.269531 88.300781 58.621094 88.429688 C 58.976562 88.558594 59.335938 88.664062 59.648438 88.730469 C 59.964844 88.800781 60.21875 88.828125 60.371094 88.8125 C 60.371094 88.8125 60.367188 88.8125 60.367188 88.8125 C 60.367188 88.8125 60.394531 88.804688 60.453125 88.746094 C 60.511719 88.691406 60.582031 88.601562 60.664062 88.480469 C 60.828125 88.242188 61.023438 87.894531 61.234375 87.46875 C 61.65625 86.617188 62.144531 85.464844 62.609375 84.246094 C 63.078125 83.03125 63.519531 81.757812 63.847656 80.664062 C 64.179688 79.5625 64.394531 78.664062 64.414062 78.1875 C 64.433594 77.710938 64.292969 76.800781 63.992188 75.648438 C 63.695312 74.5 63.246094 73.128906 62.65625 71.734375 C 61.472656 68.941406 59.75 66.101562 57.617188 64.789062 C 57.609375 64.789062 57.605469 64.785156 57.601562 64.78125 L 57.523438 64.742188 L 57.515625 64.65625 C 55.53125 63.261719 53.40625 62.8125 52.078125 62.804688 C 52.035156 63.113281 51.875 63.488281 51.515625 63.808594 C 51.085938 64.191406 50.390625 64.480469 49.320312 64.480469 C 48.25 64.480469 47.566406 64.191406 47.144531 63.808594 C 46.792969 63.488281 46.632812 63.109375 46.574219 62.8125 C 45.828125 62.855469 44.445312 63.085938 43.015625 63.695312 L 43.011719 63.695312 C 42.316406 63.972656 41.636719 64.324219 41.042969 64.753906 C 39.835938 65.695312 39.199219 66.417969 38.746094 66.929688 L 38.734375 66.941406 C 38.472656 67.238281 38.261719 67.480469 38.027344 67.648438 C 37.964844 67.691406 37.871094 67.726562 37.769531 67.679688 C 37.683594 67.640625 37.640625 67.558594 37.617188 67.507812 C 37.570312 67.390625 37.546875 67.21875 37.535156 67.027344 C 37.507812 66.640625 37.515625 66.082031 37.527344 65.488281 L 37.527344 65.476562 C 37.539062 64.78125 37.550781 64.03125 37.507812 63.425781 C 37.488281 63.121094 37.453125 62.859375 37.402344 62.660156 C 37.378906 62.5625 37.347656 62.484375 37.320312 62.425781 C 37.289062 62.367188 37.261719 62.335938 37.242188 62.324219 C 37.167969 62.277344 37.050781 62.230469 36.894531 62.191406 C 36.734375 62.152344 36.546875 62.121094 36.335938 62.105469 C 35.914062 62.066406 35.417969 62.074219 34.945312 62.128906 C 34.472656 62.179688 34.03125 62.277344 33.71875 62.417969 Z M 36.972656 61.863281 C 37.152344 61.90625 37.308594 61.964844 37.429688 62.042969 C 37.511719 62.097656 37.574219 62.179688 37.621094 62.269531 C 37.664062 62.355469 37.703125 62.460938 37.730469 62.578125 C 37.789062 62.804688 37.824219 63.089844 37.847656 63.402344 C 37.890625 64.023438 37.875 64.785156 37.867188 65.480469 L 37.863281 65.484375 C 37.855469 66.085938 37.847656 66.632812 37.875 67.003906 C 37.882812 67.140625 37.894531 67.242188 37.910156 67.308594 C 38.082031 67.171875 38.253906 66.976562 38.492188 66.707031 C 38.949219 66.1875 39.601562 65.445312 40.835938 64.484375 L 40.839844 64.480469 C 41.460938 64.03125 42.167969 63.667969 42.882812 63.382812 C 44.457031 62.714844 45.976562 62.488281 46.714844 62.46875 L 46.871094 62.464844 L 46.886719 62.621094 C 46.910156 62.867188 47.027344 63.242188 47.375 63.558594 C 47.71875 63.871094 48.308594 64.140625 49.320312 64.140625 C 50.332031 64.140625 50.9375 63.871094 51.289062 63.558594 C 51.640625 63.242188 51.753906 62.871094 51.753906 62.636719 L 51.753906 62.472656 L 51.917969 62.46875 C 53.3125 62.4375 55.628906 62.894531 57.773438 64.425781 L 57.832031 64.46875 L 57.839844 64.53125 C 60.046875 65.914062 61.789062 68.816406 62.96875 71.605469 C 63.5625 73.011719 64.019531 74.398438 64.320312 75.5625 C 64.621094 76.71875 64.777344 77.671875 64.753906 78.199219 C 64.730469 78.726562 64.503906 79.664062 64.171875 80.761719 C 63.839844 81.867188 63.394531 83.148438 62.925781 84.367188 C 62.460938 85.589844 61.96875 86.753906 61.539062 87.617188 C 61.324219 88.050781 61.121094 88.410156 60.945312 88.671875 C 60.859375 88.800781 60.773438 88.910156 60.691406 88.988281 C 60.617188 89.0625 60.519531 89.136719 60.40625 89.148438 C 60.195312 89.171875 59.898438 89.132812 59.574219 89.0625 C 59.246094 88.988281 58.875 88.878906 58.507812 88.746094 C 58.140625 88.613281 57.773438 88.457031 57.460938 88.285156 C 57.195312 88.140625 56.953125 87.980469 56.785156 87.816406 C 55.066406 88.246094 52.328125 88.398438 49.570312 88.398438 L 49.566406 88.398438 C 47.808594 88.398438 45.554688 88.398438 43.636719 88.1875 C 42.675781 88.082031 41.792969 87.921875 41.089844 87.683594 C 40.394531 87.445312 39.839844 87.113281 39.601562 86.632812 C 39.550781 86.53125 39.515625 86.363281 39.484375 86.164062 C 39.449219 85.957031 39.421875 85.6875 39.394531 85.371094 C 39.34375 84.734375 39.300781 83.886719 39.273438 82.902344 C 39.222656 81.023438 39.222656 78.628906 39.292969 76.195312 C 38.902344 76.5 38.480469 76.808594 38.023438 77.117188 L 38.011719 77.125 L 38 77.128906 C 36.261719 77.953125 34.71875 77.851562 33.542969 77.230469 C 32.375 76.617188 31.578125 75.496094 31.316406 74.308594 C 31.25 74.023438 31.257812 73.550781 31.304688 72.976562 C 31.355469 72.394531 31.445312 71.6875 31.558594 70.917969 C 31.789062 69.382812 32.117188 67.597656 32.390625 66.089844 L 32.390625 66.085938 C 32.539062 65.28125 32.671875 64.554688 32.769531 63.984375 C 32.867188 63.410156 32.921875 63.015625 32.921875 62.859375 C 32.921875 62.5 33.234375 62.261719 33.578125 62.109375 C 33.941406 61.949219 34.417969 61.847656 34.910156 61.792969 C 35.402344 61.734375 35.917969 61.726562 36.363281 61.765625 C 36.585938 61.785156 36.796875 61.816406 36.972656 61.863281 Z M 37.941406 67.394531 Z M 37.941406 67.394531 " fill-opacity="1" fill-rule="evenodd"/><path fill="#000000" d="M 63.828125 81.371094 C 62.484375 78.761719 63.15625 75.15625 63.660156 73.675781 C 63.914062 74.625 64.449219 76.753906 64.585938 77.691406 C 64.71875 78.628906 64.136719 80.535156 63.828125 81.371094 Z M 63.828125 81.371094 " fill-opacity="1" fill-rule="nonzero"/><path fill="#000000" d="M 57.703125 79.195312 C 57.632812 77.925781 56.835938 74.875 56.441406 73.507812 C 57.03125 75.015625 58.542969 77.523438 58.542969 79.195312 C 58.542969 80.535156 57.308594 85.105469 56.695312 87.226562 C 57.058594 85.078125 57.769531 80.46875 57.703125 79.195312 Z M 57.703125 79.195312 " fill-opacity="1" fill-rule="nonzero"/><path fill="#000000" d="M 49.132812 61.902344 C 48.058594 61.902344 47.398438 61.371094 47.203125 61.148438 L 47.117188 61.984375 C 49 63.054688 50.699219 62.433594 51.316406 61.984375 L 51.230469 61.148438 C 50.980469 61.371094 50.207031 61.902344 49.132812 61.902344 Z M 49.132812 61.902344 " fill-opacity="1" fill-rule="nonzero"/><path fill="#000000" d="M 37.84375 70.382812 L 37.675781 66.75 L 37.84375 67.59375 L 39.371094 66.15625 C 38.625 67.171875 38.042969 69.398438 37.84375 70.382812 Z M 37.84375 70.382812 " fill-opacity="1" fill-rule="nonzero"/><path fill="#000000" d="M 41.535156 73.15625 L 39.5 75.605469 L 39.414062 80.339844 C 39.753906 76.824219 41.109375 74.507812 41.535156 73.15625 Z M 41.535156 73.15625 " fill-opacity="1" fill-rule="nonzero"/><g clip-path="url(#a41cc0c71e)"><path fill="#000000" d="M 48.332031 68.777344 C 48.316406 68.78125 48.300781 68.78125 48.285156 68.789062 L 46.695312 69.4375 C 46.632812 69.460938 46.601562 69.535156 46.628906 69.597656 L 47.019531 70.554688 C 46.652344 70.816406 46.332031 71.132812 46.066406 71.492188 L 45.117188 71.09375 C 45.054688 71.066406 44.980469 71.097656 44.953125 71.160156 L 44.289062 72.742188 C 44.261719 72.804688 44.292969 72.878906 44.355469 72.902344 L 45.308594 73.304688 C 45.234375 73.746094 45.230469 74.195312 45.300781 74.640625 L 44.34375 75.03125 C 44.28125 75.054688 44.25 75.128906 44.277344 75.191406 L 44.925781 76.78125 C 44.949219 76.84375 45.023438 76.875 45.085938 76.847656 L 46.042969 76.457031 C 46.304688 76.824219 46.621094 77.144531 46.980469 77.410156 L 46.582031 78.359375 C 46.554688 78.421875 46.585938 78.496094 46.648438 78.523438 L 48.230469 79.1875 C 48.292969 79.214844 48.367188 79.183594 48.394531 79.121094 L 48.792969 78.167969 C 49.238281 78.242188 49.6875 78.246094 50.128906 78.175781 L 50.519531 79.132812 C 50.546875 79.195312 50.617188 79.226562 50.679688 79.199219 L 52.269531 78.550781 C 52.335938 78.527344 52.363281 78.453125 52.339844 78.390625 L 52.113281 77.839844 L 54.449219 80.367188 C 54.449219 80.367188 54.449219 80.367188 54.453125 80.367188 C 54.828125 80.742188 55.429688 80.746094 55.820312 80.394531 C 55.835938 80.386719 55.847656 80.378906 55.859375 80.367188 C 56.246094 79.980469 56.25 79.347656 55.859375 78.960938 C 55.859375 78.957031 55.859375 78.957031 55.855469 78.957031 L 53.4375 76.722656 L 53.851562 76.894531 C 53.914062 76.921875 53.988281 76.894531 54.011719 76.828125 L 54.679688 75.246094 C 54.707031 75.183594 54.675781 75.113281 54.613281 75.085938 L 53.660156 74.683594 C 53.734375 74.242188 53.734375 73.792969 53.667969 73.347656 L 54.625 72.957031 C 54.6875 72.933594 54.71875 72.859375 54.691406 72.796875 L 54.042969 71.207031 C 54.015625 71.144531 53.945312 71.113281 53.882812 71.140625 L 52.925781 71.53125 C 52.664062 71.164062 52.347656 70.84375 51.988281 70.578125 L 52.386719 69.628906 C 52.410156 69.566406 52.382812 69.492188 52.320312 69.46875 L 50.738281 68.800781 C 50.671875 68.773438 50.601562 68.804688 50.574219 68.867188 L 50.175781 69.820312 C 49.730469 69.746094 49.28125 69.742188 48.835938 69.8125 L 48.445312 68.855469 C 48.429688 68.808594 48.382812 68.777344 48.332031 68.777344 Z M 48.265625 69.066406 L 48.644531 69.988281 C 48.664062 70.042969 48.722656 70.074219 48.777344 70.0625 C 49.257812 69.976562 49.75 69.980469 50.230469 70.074219 C 50.289062 70.082031 50.34375 70.054688 50.367188 70 L 50.753906 69.078125 L 52.109375 69.648438 L 51.722656 70.566406 C 51.699219 70.621094 51.71875 70.679688 51.765625 70.714844 C 52.164062 70.996094 52.511719 71.34375 52.785156 71.75 C 52.816406 71.796875 52.878906 71.816406 52.933594 71.792969 L 53.863281 71.414062 L 54.417969 72.777344 L 53.492188 73.152344 C 53.4375 73.175781 53.40625 73.230469 53.417969 73.289062 C 53.5 73.769531 53.5 74.261719 53.40625 74.738281 C 53.394531 74.796875 53.425781 74.855469 53.480469 74.878906 L 54.402344 75.265625 L 53.832031 76.617188 L 52.914062 76.234375 C 52.910156 76.230469 52.90625 76.230469 52.902344 76.230469 L 51.863281 75.265625 C 52.242188 74.5625 52.285156 73.722656 51.984375 72.976562 C 51.574219 71.972656 50.601562 71.308594 49.519531 71.296875 C 49.15625 71.292969 48.796875 71.359375 48.464844 71.496094 C 47.085938 72.058594 46.421875 73.636719 46.984375 75.015625 C 47.546875 76.390625 49.125 77.054688 50.503906 76.492188 C 50.589844 76.457031 50.675781 76.417969 50.757812 76.371094 L 51.679688 77.367188 C 51.671875 77.394531 51.675781 77.417969 51.683594 77.441406 L 52.0625 78.371094 L 50.703125 78.925781 L 50.324219 78 C 50.304688 77.945312 50.246094 77.914062 50.1875 77.925781 C 49.710938 78.011719 49.21875 78.007812 48.738281 77.914062 C 48.679688 77.90625 48.625 77.933594 48.601562 77.988281 L 48.210938 78.910156 L 46.859375 78.339844 L 47.246094 77.421875 C 47.265625 77.367188 47.25 77.304688 47.203125 77.273438 C 46.800781 76.992188 46.457031 76.644531 46.183594 76.238281 C 46.152344 76.191406 46.089844 76.171875 46.035156 76.195312 L 45.105469 76.570312 L 44.550781 75.210938 L 45.476562 74.835938 C 45.53125 74.8125 45.5625 74.757812 45.550781 74.699219 C 45.464844 74.21875 45.46875 73.726562 45.5625 73.25 C 45.570312 73.191406 45.542969 73.132812 45.488281 73.109375 L 44.566406 72.722656 L 45.136719 71.371094 L 46.054688 71.753906 C 46.109375 71.777344 46.171875 71.761719 46.203125 71.710938 C 46.484375 71.3125 46.835938 70.96875 47.238281 70.695312 C 47.285156 70.664062 47.304688 70.601562 47.285156 70.546875 L 46.90625 69.617188 Z M 49.441406 70.4375 C 49.007812 70.441406 48.566406 70.527344 48.140625 70.703125 C 47.230469 71.074219 46.558594 71.777344 46.203125 72.617188 C 46.027344 73.035156 45.929688 73.488281 45.925781 73.949219 C 45.925781 74.019531 45.980469 74.078125 46.046875 74.078125 C 46.117188 74.078125 46.171875 74.023438 46.171875 73.953125 C 46.179688 73.523438 46.269531 73.101562 46.433594 72.710938 C 46.761719 71.929688 47.386719 71.277344 48.234375 70.929688 C 49.925781 70.238281 51.859375 71.050781 52.550781 72.746094 C 52.574219 72.808594 52.648438 72.839844 52.710938 72.816406 C 52.777344 72.789062 52.804688 72.714844 52.777344 72.652344 C 52.222656 71.289062 50.914062 70.457031 49.527344 70.4375 C 49.5 70.4375 49.46875 70.4375 49.441406 70.4375 Z M 49.453125 71.542969 C 49.472656 71.542969 49.496094 71.542969 49.515625 71.542969 C 50.5 71.554688 51.382812 72.15625 51.753906 73.070312 C 52.019531 73.722656 51.976562 74.457031 51.664062 75.085938 L 51.269531 74.71875 L 51.316406 73.414062 C 51.316406 73.40625 51.316406 73.398438 51.316406 73.390625 C 51.3125 73.386719 51.3125 73.382812 51.3125 73.378906 C 51.3125 73.378906 51.3125 73.375 51.308594 73.375 C 51.308594 73.371094 51.308594 73.367188 51.308594 73.367188 C 51.304688 73.363281 51.304688 73.359375 51.300781 73.355469 C 51.300781 73.351562 51.296875 73.347656 51.296875 73.34375 C 51.292969 73.339844 51.292969 73.335938 51.289062 73.335938 C 51.289062 73.332031 51.289062 73.332031 51.285156 73.332031 C 51.285156 73.328125 51.28125 73.328125 51.28125 73.324219 C 51.28125 73.324219 51.28125 73.324219 51.277344 73.324219 L 50.066406 72.109375 C 50.042969 72.085938 50.007812 72.074219 49.976562 72.074219 C 49.972656 72.074219 49.96875 72.074219 49.96875 72.074219 C 49.964844 72.074219 49.964844 72.074219 49.964844 72.074219 C 49.960938 72.074219 49.960938 72.074219 49.957031 72.074219 L 49.574219 72.132812 L 48.734375 72.261719 C 48.730469 72.261719 48.726562 72.261719 48.722656 72.265625 C 48.636719 72.285156 48.601562 72.390625 48.65625 72.460938 C 48.660156 72.464844 48.664062 72.46875 48.667969 72.472656 L 50.03125 73.835938 L 49.890625 74.402344 L 49.324219 74.542969 L 47.960938 73.179688 C 47.933594 73.152344 47.894531 73.136719 47.859375 73.144531 C 47.851562 73.144531 47.839844 73.144531 47.835938 73.148438 C 47.816406 73.152344 47.804688 73.160156 47.789062 73.171875 C 47.789062 73.175781 47.785156 73.175781 47.78125 73.179688 C 47.765625 73.199219 47.753906 73.222656 47.75 73.246094 L 47.5625 74.46875 C 47.558594 74.507812 47.570312 74.546875 47.59375 74.574219 C 47.597656 74.574219 47.597656 74.574219 47.597656 74.574219 L 48.8125 75.789062 C 48.820312 75.796875 48.832031 75.804688 48.84375 75.8125 C 48.847656 75.816406 48.855469 75.816406 48.863281 75.820312 C 48.878906 75.824219 48.890625 75.824219 48.902344 75.824219 L 50.210938 75.78125 L 50.578125 76.179688 C 50.523438 76.207031 50.46875 76.238281 50.410156 76.261719 C 49.15625 76.773438 47.726562 76.175781 47.214844 74.917969 C 46.703125 73.664062 47.304688 72.238281 48.558594 71.726562 C 48.84375 71.609375 49.144531 71.546875 49.453125 71.542969 Z M 49.933594 72.328125 L 51.066406 73.460938 L 51.019531 74.769531 C 51.019531 74.777344 51.019531 74.785156 51.023438 74.792969 C 51.023438 74.796875 51.023438 74.800781 51.023438 74.804688 C 51.027344 74.8125 51.03125 74.820312 51.035156 74.828125 C 51.035156 74.832031 51.039062 74.835938 51.039062 74.839844 C 51.042969 74.847656 51.050781 74.851562 51.054688 74.859375 C 51.058594 74.859375 51.058594 74.863281 51.058594 74.863281 L 51.621094 75.382812 L 52.773438 76.445312 C 52.773438 76.445312 52.773438 76.445312 52.777344 76.449219 L 54.550781 78.085938 L 53.578125 79.058594 L 51.933594 77.28125 L 50.871094 76.132812 L 50.355469 75.570312 C 50.34375 75.558594 50.328125 75.550781 50.3125 75.542969 C 50.308594 75.539062 50.304688 75.539062 50.300781 75.539062 C 50.296875 75.535156 50.292969 75.535156 50.289062 75.535156 C 50.28125 75.53125 50.273438 75.53125 50.265625 75.53125 C 50.261719 75.53125 50.261719 75.53125 50.257812 75.53125 L 48.949219 75.578125 L 47.816406 74.445312 L 47.957031 73.527344 L 49.199219 74.765625 C 49.203125 74.773438 49.210938 74.777344 49.21875 74.785156 C 49.226562 74.789062 49.230469 74.792969 49.238281 74.792969 C 49.242188 74.796875 49.246094 74.796875 49.25 74.800781 C 49.253906 74.800781 49.257812 74.800781 49.261719 74.800781 C 49.277344 74.804688 49.289062 74.804688 49.300781 74.804688 C 49.300781 74.804688 49.300781 74.800781 49.300781 74.800781 C 49.308594 74.800781 49.3125 74.800781 49.316406 74.800781 L 50.023438 74.625 C 50.027344 74.621094 50.03125 74.621094 50.035156 74.617188 C 50.042969 74.617188 50.050781 74.613281 50.054688 74.609375 C 50.0625 74.605469 50.070312 74.597656 50.074219 74.59375 C 50.082031 74.585938 50.085938 74.582031 50.09375 74.574219 C 50.097656 74.566406 50.101562 74.5625 50.105469 74.554688 C 50.109375 74.546875 50.109375 74.539062 50.113281 74.53125 L 50.289062 73.828125 C 50.289062 73.820312 50.292969 73.8125 50.292969 73.800781 C 50.292969 73.789062 50.292969 73.777344 50.289062 73.765625 C 50.28125 73.746094 50.269531 73.726562 50.253906 73.710938 L 49.015625 72.46875 Z M 52.917969 73.910156 C 52.851562 73.910156 52.792969 73.964844 52.792969 74.035156 C 52.789062 74.464844 52.699219 74.886719 52.535156 75.277344 C 52.507812 75.339844 52.535156 75.414062 52.601562 75.441406 C 52.664062 75.46875 52.738281 75.4375 52.761719 75.371094 C 52.941406 74.953125 53.035156 74.5 53.042969 74.039062 C 53.042969 73.96875 52.988281 73.910156 52.917969 73.910156 Z M 50.636719 75.019531 C 50.523438 75.019531 50.46875 75.15625 50.550781 75.234375 L 51.195312 75.875 L 51.839844 76.519531 C 51.886719 76.570312 51.96875 76.570312 52.015625 76.519531 C 52.066406 76.472656 52.066406 76.390625 52.015625 76.34375 L 51.371094 75.699219 L 50.722656 75.058594 C 50.703125 75.035156 50.667969 75.019531 50.636719 75.019531 Z M 46.304688 75.164062 C 46.214844 75.164062 46.15625 75.257812 46.191406 75.335938 C 46.5625 76.246094 47.265625 76.917969 48.105469 77.273438 C 48.945312 77.625 49.917969 77.65625 50.828125 77.289062 C 50.890625 77.261719 50.921875 77.1875 50.898438 77.125 C 50.871094 77.0625 50.796875 77.03125 50.734375 77.058594 C 49.886719 77.402344 48.980469 77.371094 48.199219 77.042969 C 47.421875 76.714844 46.765625 76.089844 46.417969 75.242188 C 46.402344 75.195312 46.355469 75.164062 46.304688 75.164062 Z M 54.734375 78.253906 L 55.6875 79.136719 C 55.976562 79.429688 55.976562 79.898438 55.683594 80.191406 C 55.390625 80.484375 54.917969 80.484375 54.625 80.191406 L 53.746094 79.242188 Z M 55.074219 79.164062 C 54.855469 79.164062 54.671875 79.347656 54.671875 79.566406 C 54.671875 79.789062 54.855469 79.96875 55.074219 79.96875 C 55.296875 79.96875 55.476562 79.789062 55.476562 79.566406 C 55.476562 79.347656 55.296875 79.164062 55.074219 79.164062 Z M 55.074219 79.414062 C 55.160156 79.414062 55.230469 79.480469 55.230469 79.566406 C 55.230469 79.652344 55.160156 79.722656 55.074219 79.722656 C 54.988281 79.722656 54.921875 79.652344 54.921875 79.566406 C 54.921875 79.480469 54.988281 79.414062 55.074219 79.414062 Z M 55.074219 79.414062 " fill-opacity="1" fill-rule="nonzero"/></g></svg>